{
  "accessors": [
    {
      "bufferView": 3,
      "componentType": 5126,
      "count": 23134,
      "max": [
        7.180879592895508,
        18.74188995361328,
        1.4753007888793945
      ],
      "min": [
        -7.1808600425720215,
        -0.0015699256910011172,
        -2.3473494052886963
      ],
      "type": "VEC3"
    },
    {
      "bufferView": 3,
      "byteOffset": 277608,
      "componentType": 5126,
      "count": 23134,
      "max": [
        0.9999804496765137,
        0.9999991655349731,
        0.9999997615814209
      ],
      "min": [
        -0.999916672706604,
        -0.9999632239341736,
        -0.9998099207878113
      ],
      "type": "VEC3"
    },
    {
      "bufferView": 2,
      "componentType": 5126,
      "count": 23134,
      "max": [
        0.9907039999961853,
        0.9447519779205322
      ],
      "min": [
        0.0020409999415278435,
        0.0010160207748413086
      ],
      "type": "VEC2"
    },
    {
      "bufferView": 2,
      "byteOffset": 185072,
      "componentType": 5126,
      "count": 23134,
      "max": [
        1.0,
        1.0
      ],
      "min": [
        -1.0,
        0.0021340250968933105
      ],
      "type": "VEC2"
    },
    {
      "bufferView": 1,
      "componentType": 5125,
      "count": 105687,
      "type": "SCALAR"
    },
    {
      "bufferView": 5,
      "componentType": 5126,
      "count": 100,
      "max": [
        1.0,
        1.0,
        0.9894982576370239,
        0.0,
        0.9894983172416687,
        1.0000001192092896,
        1.0000001192092896,
        0.0,
        1.0,
        1.0000001192092896,
        1.0,
        0.0,
        12.540350914001465,
        11.924187660217285,
        17.348459243774414,
        1.0
      ],
      "min": [
        -1.0,
        -1.000000238418579,
        -0.989585816860199,
        0.0,
        -0.9895856380462646,
        -0.9989942312240601,
        -0.9991899132728577,
        0.0,
        -1.0000001192092896,
        -0.7225496172904968,
        -0.9990309476852417,
        0.0,
        -12.542413711547852,
        -16.74835777282715,
        -17.59009552001953,
        1.0
      ],
      "type": "MAT4"
    },
    {
      "bufferView": 0,
      "componentType": 5123,
      "count": 23134,
      "type": "VEC4"
    },
    {
      "bufferView": 4,
      "componentType": 5126,
      "count": 23134,
      "max": [
        1.0,
        0.49803900718688965,
        0.3176470100879669,
        0.22745078802108765
      ],
      "min": [
        0.2862747311592102,
        0.0,
        0.0,
        0.0
      ],
      "type": "VEC4"
    }
  ],
  "asset": {
    "extras": {
      "author": "HiGuys920 (https://sketchfab.com/higuys920)",
      "license": "CC-BY-4.0 (http://creativecommons.org/licenses/by/4.0/)",
      "source": "https://sketchfab.com/3d-models/wednesday-addams-final-version-3d-model-dl-f7dece6ae0554c5fba4e2a7346dd0a28",
      "title": "Wednesday Addams (Final Version) (3D Model) + DL"
    },
    "generator": "Sketchfab-15.17.0",
    "version": "2.0"
  },
  "bufferViews": [
    {
      "buffer": 0,
      "byteLength": 185072,
      "byteStride": 8,
      "name": "shortBufferViews",
      "target": 34962
    },
    {
      "buffer": 0,
      "byteLength": 422748,
      "byteOffset": 185072,
      "name": "floatBufferViews",
      "target": 34963
    },
    {
      "buffer": 0,
      "byteLength": 370144,
      "byteOffset": 607820,
      "byteStride": 8,
      "name": "floatBufferViews",
      "target": 34962
    },
    {
      "buffer": 0,
      "byteLength": 555216,
      "byteOffset": 977964,
      "byteStride": 12,
      "name": "floatBufferViews",
      "target": 34962
    },
    {
      "buffer": 0,
      "byteLength": 370144,
      "byteOffset": 1533180,
      "byteStride": 16,
      "name": "floatBufferViews",
      "target": 34962
    },
    {
      "buffer": 0,
      "byteLength": 6400,
      "byteOffset": 1903324,
      "name": "floatBufferViews"
    }
  ],
  "buffers": [
    {
      "byteLength": 1909724,
      "uri": "scene.bin"
    }
  ],
  "extensionsUsed": [
    "KHR_materials_unlit"
  ],
  "images": [
    {
      "uri": "textures/Body_baseColor.png"
    }
  ],
  "materials": [
    {
      "doubleSided": true,
      "extensions": {
        "KHR_materials_unlit": {}
      },
      "name": "Body",
      "pbrMetallicRoughness": {
        "baseColorTexture": {
          "index": 0
        },
        "metallicFactor": 0.0
      }
    }
  ],
  "meshes": [
    {
      "name": "Object_0",
      "primitives": [
        {
          "attributes": {
            "JOINTS_0": 6,
            "NORMAL": 1,
            "POSITION": 0,
            "TEXCOORD_0": 2,
            "TEXCOORD_1": 3,
            "WEIGHTS_0": 7
          },
          "indices": 4,
          "material": 0,
          "mode": 4
        }
      ]
    }
  ],
  "nodes": [
    {
      "children": [
        1
      ],
      "matrix": [
        1.0,
        0.0,
        0.0,
        0.0,
        0.0,
        2.220446049250313e-16,
        -1.0,
        0.0,
        0.0,
        1.0,
        2.220446049250313e-16,
        0.0,
        0.0,
        0.0,
        0.0,
        1.0
      ],
      "name": "Sketchfab_model"
    },
    {
      "children": [
        2
      ],
      "name": "root"
    },
    {
      "children": [
        3
      ],
      "matrix": [
        1.0,
        0.0,
        0.0,
        0.0,
        0.0,
        2.220446049250313e-16,
        1.0,
        0.0,
        0.0,
        -1.0,
        2.220446049250313e-16,
        0.0,
        0.0,
        0.0,
        0.0,
        1.0
      ],
      "name": "GLTF_SceneRootNode"
    },
    {
      "children": [
        4
      ],
      "name": "Armature_100"
    },
    {
      "children": [
        5,
        7,
        6
      ],
      "name": "GLTF_created_0"
    },
    {
      "children": [
        8
      ],
      "name": "GLTF_created_0_rootJoint"
    },
    {
      "name": "Wednesday Addams_99"
    },
    {
      "mesh": 0,
      "name": "Object_7",
      "skin": 0
    },
    {
      "children": [
        9,
        95,
        101
      ],
      "name": "Hips_98",
      "translation": [
        -2.086162567138672e-07,
        10.5133056640625,
        -0.0011735591106116772
      ]
    },
    {
      "children": [
        10
      ],
      "name": "Spine_85",
      "rotation": [
        -6.64185281493701e-05,
        0.0,
        0.0,
        1.0
      ],
      "translation": [
        2.086162567138672e-07,
        0.7840242385864258,
        2.2855005227029324e-05
      ]
    },
    {
      "children": [
        11,
        51,
        72,
        93,
        94
      ],
      "name": "Chest_84",
      "rotation": [
        -0.05700523778796196,
        0.0,
        0.0,
        0.9983739256858826
      ],
      "scale": [
        1.0,
        1.0000001192092896,
        1.0000001192092896
      ],
      "translation": [
        0.0,
        1.620769739151001,
        1.0855205090365416e-07
      ]
    },
    {
      "children": [
        12
      ],
      "name": "Neck_39",
      "rotation": [
        0.28012391924858093,
        0.0,
        0.0,
        0.959963858127594
      ],
      "scale": [
        1.0,
        1.000000238418579,
        1.0000001192092896
      ],
      "translation": [
        0.0,
        3.1764838695526123,
        -5.725076448470645e-07
      ]
    },
    {
      "children": [
        13,
        14,
        15,
        23,
        24,
        25,
        33,
        38,
        44
      ],
      "name": "Head_38",
      "rotation": [
        -0.22488081455230713,
        0.0,
        0.0,
        0.9743862748146057
      ],
      "translation": [
        0.0,
        0.7503566145896912,
        1.9744038581848145e-07
      ]
    },
    {
      "name": "L_Cheek_0",
      "rotation": [
        3.090685041229335e-08,
        -0.7071472406387329,
        -0.7070662975311279,
        3.091038536240376e-08
      ],
      "translation": [
        0.37351998686790466,
        0.1578463762998581,
        0.8647188544273376
      ]
    },
    {
      "name": "L_Squint_1",
      "rotation": [
        3.090685041229335e-08,
        -0.7071472406387329,
        -0.7070662975311279,
        3.091038536240376e-08
      ],
      "translation": [
        0.3979499638080597,
        0.4030875265598297,
        0.9474460482597351
      ]
    },
    {
      "children": [
        16,
        17,
        18,
        19
      ],
      "name": "CAS_L_EyeArea_9",
      "rotation": [
        3.090626066182267e-08,
        -0.7071607112884521,
        -0.7070528268814087,
        3.091097511287444e-08
      ],
      "translation": [
        0.3363899886608124,
        0.6131114363670349,
        0.6926279664039612
      ]
    },
    {
      "name": "L_InBrow_2",
      "rotation": [
        -1.4901161193847656e-07,
        -4.371139183945161e-08,
        6.513339892525458e-15,
        1.0
      ],
      "translation": [
        0.24738995730876923,
        0.29011303186416626,
        0.1622869372367859
      ]
    },
    {
      "name": "L_MidBrow_3",
      "rotation": [
        -1.4901161193847656e-07,
        -4.371138828673793e-08,
        6.5132835648344656e-15,
        1.0
      ],
      "scale": [
        1.0,
        0.9999998807907104,
        0.9999999403953552
      ],
      "translation": [
        0.02357996627688408,
        0.24049419164657593,
        0.22872744500637054
      ]
    },
    {
      "name": "L_OutBrow_4",
      "rotation": [
        -1.907348087115679e-05,
        -4.371139183945161e-08,
        8.337280518744272e-13,
        1.0
      ],
      "translation": [
        -0.18421004712581635,
        0.11228324472904205,
        0.17730963230133057
      ]
    },
    {
      "children": [
        20,
        21,
        22
      ],
      "name": "CAS_L_EyeScale_8",
      "rotation": [
        -1.9147964849253185e-05,
        -4.371139183945161e-08,
        -1.4367493739869674e-12,
        1.0
      ],
      "translation": [
        -3.6684941733255982e-06,
        -0.011298881843686104,
        0.05659715458750725
      ]
    },
    {
      "name": "L_LoLid_5",
      "rotation": [
        2.9707734938710928e-08,
        3.552731466492393e-15,
        5.997652461481318e-13,
        1.0
      ],
      "translation": [
        -6.545320383778697e-13,
        6.775331229391668e-08,
        4.0372106013819575e-07
      ]
    },
    {
      "name": "L_UpLid_6",
      "rotation": [
        2.9707734938710928e-08,
        3.552731466492393e-15,
        5.997652461481318e-13,
        1.0
      ],
      "translation": [
        -6.545320383778697e-13,
        6.775331229391668e-08,
        4.0372106013819575e-07
      ]
    },
    {
      "name": "Eye_L_7",
      "rotation": [
        2.9707734938710928e-08,
        3.552731466492393e-15,
        5.997652461481318e-13,
        1.0
      ],
      "translation": [
        -6.545320383778697e-13,
        6.775331229391668e-08,
        4.0372106013819575e-07
      ]
    },
    {
      "name": "R_Cheek_10",
      "rotation": [
        3.090626066182267e-08,
        -0.7071607112884521,
        -0.7070528268814087,
        3.091097511287444e-08
      ],
      "translation": [
        -0.37351998686790466,
        0.15787498652935028,
        0.8647288084030151
      ]
    },
    {
      "name": "R_Squint_11",
      "rotation": [
        3.090626066182267e-08,
        -0.7071607112884521,
        -0.7070528268814087,
        3.091097511287444e-08
      ],
      "translation": [
        -0.3979499638080597,
        0.4030665457248688,
        0.9474460482597351
      ]
    },
    {
      "children": [
        26,
        27,
        28,
        29
      ],
      "name": "CAS_R_EyeArea_19",
      "rotation": [
        3.090626066182267e-08,
        -0.7071607112884521,
        -0.7070528268814087,
        3.091097511287444e-08
      ],
      "translation": [
        -0.33629000186920166,
        0.613120973110199,
        0.6926279664039612
      ]
    },
    {
      "name": "R_InBrow_12",
      "rotation": [
        -1.922249430208467e-05,
        -4.371139183945161e-08,
        8.40242101157046e-13,
        1.0
      ],
      "translation": [
        -0.24738001823425293,
        0.290122926235199,
        0.16223736107349396
      ]
    },
    {
      "name": "R_MidBrow_13",
      "rotation": [
        0.0,
        -4.371139183945161e-08,
        -1.6263058436676709e-19,
        1.0
      ],
      "translation": [
        -0.02358003333210945,
        0.24049419164657593,
        0.22871796786785126
      ]
    },
    {
      "name": "R_OutBrow_14",
      "rotation": [
        0.0,
        -4.371139183945161e-08,
        -1.6263058436676709e-19,
        1.0
      ],
      "translation": [
        0.18420998752117157,
        0.11228325217962265,
        0.1773192584514618
      ]
    },
    {
      "children": [
        30,
        31,
        32
      ],
      "name": "CAS_R_EyeScale_18",
      "rotation": [
        -7.450580596923828e-08,
        -4.371139183945161e-08,
        3.2565841841768195e-15,
        1.0
      ],
      "translation": [
        1.3944678357802331e-05,
        -0.011298879981040955,
        0.0565933994948864
      ]
    },
    {
      "name": "R_LoLid_15",
      "rotation": [
        2.9707734938710928e-08,
        3.552713467042264e-15,
        -6.5134961701042264e-15,
        1.0
      ],
      "translation": [
        1.3222756223285614e-13,
        -1.816079375771551e-08,
        5.254842108115554e-07
      ]
    },
    {
      "name": "R_UpLid_16",
      "rotation": [
        2.9707734938710928e-08,
        3.552713467042264e-15,
        -6.5134961701042264e-15,
        1.0
      ],
      "translation": [
        1.3222756223285614e-13,
        -1.816079375771551e-08,
        5.254842108115554e-07
      ]
    },
    {
      "name": "Eye_R_17",
      "rotation": [
        2.9707734938710928e-08,
        3.552713467042264e-15,
        -6.5134961701042264e-15,
        1.0
      ],
      "translation": [
        1.3222756223285614e-13,
        -1.816079375771551e-08,
        5.254842108115554e-07
      ]
    },
    {
      "children": [
        34,
        35,
        36,
        37
      ],
      "name": "CAS_NoseArea_24",
      "rotation": [
        0.7211952209472656,
        0.0,
        0.0,
        0.6927319169044495
      ],
      "scale": [
        1.0,
        1.0000001192092896,
        1.0000001192092896
      ],
      "translation": [
        0.0,
        0.1884554922580719,
        1.058889627456665
      ]
    },
    {
      "name": "CAS_NoseTip_20",
      "rotation": [
        0.024542033672332764,
        0.0,
        0.0,
        0.99969881772995
      ],
      "scale": [
        1.0,
        1.0,
        1.0000001192092896
      ],
      "translation": [
        0.0,
        0.0899151861667633,
        -0.11300265789031982
      ]
    },
    {
      "name": "CAS_NoseBridge_21",
      "rotation": [
        -2.9709190130233765e-07,
        0.0,
        0.0,
        1.0
      ],
      "translation": [
        0.0,
        -0.08741658926010132,
        -0.3841409981250763
      ]
    },
    {
      "name": "CAS_L_Nostril_22",
      "rotation": [
        0.01818902976810932,
        0.0,
        0.0,
        0.9998345971107483
      ],
      "translation": [
        0.11892999708652496,
        -0.0003674328327178955,
        -0.10877596586942673
      ]
    },
    {
      "name": "CAS_R_Nostril_23",
      "rotation": [
        0.0181700699031353,
        0.0,
        0.0,
        0.9998348951339722
      ],
      "translation": [
        -0.11892998963594437,
        -0.0003753900818992406,
        -0.10882340371608734
      ]
    },
    {
      "children": [
        39,
        40,
        41,
        42,
        43
      ],
      "name": "CAS_UpperMouthArea_30",
      "rotation": [
        3.090626066182267e-08,
        -0.7071607112884521,
        -0.7070528268814087,
        3.091097511287444e-08
      ],
      "translation": [
        -1.1368683772161603e-13,
        -0.060432471334934235,
        0.43277809023857117
      ]
    },
    {
      "name": "L_Mouth_25",
      "rotation": [
        -4.6566128730773926e-08,
        -4.371139183945161e-08,
        2.0355239337881224e-15,
        1.0
      ],
      "translation": [
        -0.27873000502586365,
        0.44802969694137573,
        -0.014998924918472767
      ]
    },
    {
      "name": "L_UpLip_26",
      "rotation": [
        0.0,
        -4.371139183945161e-08,
        5.421098750367606e-20,
        1.0
      ],
      "translation": [
        -0.1446000039577484,
        0.5886613726615906,
        0.071348175406456
      ]
    },
    {
      "name": "R_Mouth_27",
      "rotation": [
        -3.725290298461914e-08,
        -4.371139183945161e-08,
        1.6284276173599704e-15,
        1.0
      ],
      "translation": [
        0.27873000502586365,
        0.4480295777320862,
        -0.014958822168409824
      ]
    },
    {
      "name": "R_UpLip_28",
      "rotation": [
        -1.9147964849253185e-05,
        -4.371139183945161e-08,
        8.369840736287271e-13,
        1.0
      ],
      "translation": [
        0.1446000039577484,
        0.5886613726615906,
        0.07134057581424713
      ]
    },
    {
      "name": "UpLip_29",
      "rotation": [
        -7.450580596923828e-08,
        -4.371139183945161e-08,
        3.2568090714243155e-15,
        1.0
      ],
      "translation": [
        -8.057480016532281e-09,
        0.6464418768882751,
        0.09216761589050293
      ]
    },
    {
      "children": [
        45,
        49
      ],
      "name": "Jaw_37",
      "rotation": [
        0.6174842119216919,
        0.0,
        0.0,
        0.7865833044052124
      ],
      "scale": [
        1.0,
        1.0000001192092896,
        1.0000001192092896
      ],
      "translation": [
        0.0,
        0.3516883850097656,
        0.15996360778808594
      ]
    },
    {
      "children": [
        46,
        47,
        48
      ],
      "name": "CAS_LowerMouthArea_34",
      "rotation": [
        5.223312893321008e-09,
        -0.992834746837616,
        -0.11949548870325089,
        4.3398184601528556e-08
      ],
      "translation": [
        0.0,
        0.1895293891429901,
        0.47060978412628174
      ]
    },
    {
      "name": "LoLip_31",
      "rotation": [
        0.0,
        -4.371139183945161e-08,
        1.0820845901173687e-19,
        1.0
      ],
      "translation": [
        4.8320987211525335e-09,
        0.606449544429779,
        -0.05527156963944435
      ]
    },
    {
      "name": "L_LoLip_32",
      "rotation": [
        -1.9073457224294543e-05,
        -4.371139183945161e-08,
        8.337277808238841e-13,
        1.0
      ],
      "translation": [
        -0.11114999651908875,
        0.5791800618171692,
        -0.03261955827474594
      ]
    },
    {
      "name": "R_LoLip_33",
      "rotation": [
        -1.9073457224294543e-05,
        -4.371139183945161e-08,
        8.337277808238841e-13,
        1.0
      ],
      "translation": [
        0.11114999651908875,
        0.5791800618171692,
        -0.032610002905130386
      ]
    },
    {
      "children": [
        50
      ],
      "name": "CAS_JawComp_36",
      "rotation": [
        0.18727079033851624,
        0.0,
        0.0,
        0.9823083281517029
      ],
      "scale": [
        1.0,
        1.0,
        0.9999998807907104
      ],
      "translation": [
        0.0,
        -0.04246121644973755,
        0.5767812728881836
      ]
    },
    {
      "name": "CAS_Chin_35",
      "rotation": [
        -2.9963080905304196e-09,
        -0.9976478815078735,
        0.06854753196239471,
        4.360857275287344e-08
      ],
      "scale": [
        1.0,
        1.0000004768371582,
        0.9999999403953552
      ],
      "translation": [
        1.1368683772161603e-13,
        0.5179465413093567,
        2.4519426915503573e-06
      ]
    },
    {
      "children": [
        52
      ],
      "name": "Right shoulder_60",
      "rotation": [
        -0.4706510901451111,
        0.4706480801105499,
        0.5277194976806641,
        0.5277215242385864
      ],
      "scale": [
        0.9999998807907104,
        0.9999998211860657,
        0.9999998807907104
      ],
      "translation": [
        -0.20009000599384308,
        2.327277183532715,
        0.05962994322180748
      ]
    },
    {
      "children": [
        53,
        71
      ],
      "name": "Right arm_59",
      "rotation": [
        -0.3440084755420685,
        0.3440069854259491,
        -0.16728049516677856,
        0.8575165271759033
      ],
      "scale": [
        1.0000001192092896,
        1.0,
        0.9999999403953552
      ],
      "translation": [
        -3.811706221767963e-07,
        1.400672435760498,
        1.450667127755878e-06
      ]
    },
    {
      "children": [
        54,
        55
      ],
      "name": "Right elbow_57",
      "rotation": [
        -0.0376473031938076,
        -0.00020096596563234925,
        0.03806794807314873,
        0.9985657334327698
      ],
      "scale": [
        0.9999999403953552,
        1.0,
        0.9999999403953552
      ],
      "translation": [
        8.879790698301804e-07,
        3.21148681640625,
        -1.6746340634199441e-06
      ]
    },
    {
      "name": "R_ForearmTwist_40",
      "rotation": [
        -0.5324832201004028,
        0.05182304233312607,
        0.4652545154094696,
        0.7052052021026611
      ],
      "scale": [
        1.0000001192092896,
        1.0,
        0.9999999403953552
      ],
      "translation": [
        1.7547481547808275e-05,
        1.4130104780197144,
        -1.3914152987126727e-05
      ]
    },
    {
      "children": [
        56,
        59,
        62,
        65,
        68
      ],
      "name": "Right wrist_56",
      "rotation": [
        0.017175914719700813,
        0.5151776075363159,
        -0.7068860530853271,
        0.48436471819877625
      ],
      "scale": [
        0.9999999403953552,
        0.9999998807907104,
        1.0
      ],
      "translation": [
        3.2062732202575717e-07,
        2.8736276626586914,
        -6.51718323751993e-08
      ]
    },
    {
      "children": [
        57
      ],
      "name": "Thumb0_R_43",
      "rotation": [
        -0.40745413303375244,
        -0.5424107313156128,
        0.35627225041389465,
        0.6425277590751648
      ],
      "scale": [
        0.9999999403953552,
        1.0,
        1.0000001192092896
      ],
      "translation": [
        0.08120806515216827,
        0.059499043971300125,
        -0.3336058557033539
      ]
    },
    {
      "children": [
        58
      ],
      "name": "Thumb1_R_42",
      "rotation": [
        3.010965883731842e-06,
        -2.868472961381485e-07,
        -6.537884473800659e-07,
        1.0
      ],
      "scale": [
        1.0,
        1.0,
        0.9999999403953552
      ],
      "translation": [
        1.0430834862518168e-07,
        0.30999064445495605,
        4.1723538402038685e-07
      ]
    },
    {
      "name": "Thumb2_R_41",
      "rotation": [
        0.6664794683456421,
        0.17190738022327423,
        -0.23621883988380432,
        0.6858962774276733
      ],
      "scale": [
        0.9999998807907104,
        1.0,
        0.9999999403953552
      ],
      "translation": [
        1.1175870895385742e-07,
        0.39002174139022827,
        0.0
      ]
    },
    {
      "children": [
        60
      ],
      "name": "LittleFinger1_R_46",
      "rotation": [
        -0.016651224344968796,
        -0.5115298628807068,
        0.7022826075553894,
        0.4948323667049408
      ],
      "scale": [
        1.0,
        1.0,
        0.9999998807907104
      ],
      "translation": [
        -0.67645263671875,
        0.004602471832185984,
        -0.33647292852401733
      ]
    },
    {
      "children": [
        61
      ],
      "name": "LittleFinger2_R_45",
      "rotation": [
        5.9174373745918274e-05,
        -7.7810138463974e-05,
        4.63174692413304e-05,
        1.0
      ],
      "scale": [
        1.0000001192092896,
        1.0,
        1.0000001192092896
      ],
      "translation": [
        1.1622905731201172e-06,
        0.4000207781791687,
        6.557995106959424e-07
      ]
    },
    {
      "name": "LittleFinger3_R_44",
      "rotation": [
        0.021341342478990555,
        0.5113799571990967,
        -0.7067887187004089,
        0.48834913969039917
      ],
      "scale": [
        1.0,
        1.000000238418579,
        1.0
      ],
      "translation": [
        1.6502652897543157e-06,
        0.21996966004371643,
        6.150676199467853e-07
      ]
    },
    {
      "children": [
        63
      ],
      "name": "RingFinger1_R_49",
      "rotation": [
        -0.03229081258177757,
        -0.514762282371521,
        0.6912415623664856,
        0.5061246752738953
      ],
      "scale": [
        1.0,
        1.000000238418579,
        1.0
      ],
      "translation": [
        -0.5699694156646729,
        -0.014470666646957397,
        -0.49951475858688354
      ]
    },
    {
      "children": [
        64
      ],
      "name": "RingFinger2_R_48",
      "rotation": [
        -8.080340921878815e-05,
        0.00013948604464530945,
        -0.00010482128709554672,
        1.0
      ],
      "scale": [
        1.0,
        1.0,
        0.9999999403953552
      ],
      "translation": [
        4.915722229270614e-07,
        0.4399501085281372,
        -1.4156872794046649e-06
      ]
    },
    {
      "name": "RingFinger3_R_47",
      "rotation": [
        0.048129841685295105,
        0.51459139585495,
        -0.705463171005249,
        0.48497530817985535
      ],
      "scale": [
        1.0,
        1.0000001192092896,
        1.0000001192092896
      ],
      "translation": [
        2.1756528667538078e-07,
        0.27002012729644775,
        -5.375232490223425e-07
      ]
    },
    {
      "children": [
        66
      ],
      "name": "MiddleFinger1_R_52",
      "rotation": [
        -0.027795495465397835,
        -0.5149835348129272,
        0.6960318684577942,
        0.49955886602401733
      ],
      "scale": [
        1.0,
        1.0,
        0.9999999403953552
      ],
      "translation": [
        -0.4096379280090332,
        -0.014731097035109997,
        -0.6509220600128174
      ]
    },
    {
      "children": [
        67
      ],
      "name": "MiddleFinger2_R_51",
      "rotation": [
        1.275632530450821e-05,
        -2.5141984224319458e-05,
        2.046208828687668e-05,
        1.0
      ],
      "scale": [
        0.9999999403953552,
        0.9999999403953552,
        1.0
      ],
      "translation": [
        -6.770333129679784e-07,
        0.46001091599464417,
        -1.0225860478385584e-06
      ]
    },
    {
      "name": "MiddleFinger3_R_50",
      "rotation": [
        0.03863563388586044,
        0.5147766470909119,
        -0.7060487270355225,
        0.48477572202682495
      ],
      "translation": [
        1.8574510818325507e-07,
        0.28999975323677063,
        -1.6841916021803627e-06
      ]
    },
    {
      "children": [
        69
      ],
      "name": "IndexFinger1_R_55",
      "rotation": [
        -0.03582199290394783,
        -0.5278944969177246,
        0.7061781883239746,
        0.47048547863960266
      ],
      "scale": [
        0.9999999403953552,
        1.000000238418579,
        0.9999999403953552
      ],
      "translation": [
        -0.22284163534641266,
        0.012131532654166222,
        -0.777450442314148
      ]
    },
    {
      "children": [
        70
      ],
      "name": "IndexFinger2_R_54",
      "rotation": [
        4.3811269279103726e-05,
        -7.665902376174927e-05,
        5.323626101016998e-05,
        1.0
      ],
      "scale": [
        1.0,
        1.000000238418579,
        1.0
      ],
      "translation": [
        -8.933081829809453e-08,
        0.44000449776649475,
        1.7875125024602312e-07
      ]
    },
    {
      "name": "IndexFinger3_R_53",
      "rotation": [
        0.03574270382523537,
        0.5279003381729126,
        -0.7061995267868042,
        0.4704529643058777
      ],
      "scale": [
        0.9999998211860657,
        0.9999995827674866,
        0.9999999403953552
      ],
      "translation": [
        9.807608876144513e-07,
        0.24998876452445984,
        -5.783352889920934e-07
      ]
    },
    {
      "name": "R_ShoulderTwist_58",
      "rotation": [
        -0.3027854263782501,
        -0.2250695526599884,
        0.6389963030815125,
        0.6703345775604248
      ],
      "scale": [
        0.9999999403953552,
        1.0,
        1.0
      ],
      "translation": [
        4.691263711720239e-06,
        -3.432805442571407e-06,
        -5.458703526528552e-06
      ]
    },
    {
      "children": [
        73
      ],
      "name": "Left shoulder_81",
      "rotation": [
        -0.47064632177352905,
        -0.47064945101737976,
        -0.5277209877967834,
        0.5277231931686401
      ],
      "scale": [
        1.0,
        1.0,
        1.0000001192092896
      ],
      "translation": [
        0.20008999109268188,
        2.3272781372070313,
        0.05963003635406494
      ]
    },
    {
      "children": [
        74,
        92
      ],
      "name": "Left arm_80",
      "rotation": [
        -0.3440445363521576,
        -0.3440438210964203,
        0.16720548272132874,
        0.8575019240379333
      ],
      "scale": [
        1.0,
        0.9999999403953552,
        1.0
      ],
      "translation": [
        -3.9282181774069613e-07,
        1.4006664752960205,
        -1.1784771913880832e-06
      ]
    },
    {
      "children": [
        75,
        76
      ],
      "name": "Left elbow_78",
      "rotation": [
        -0.037523671984672546,
        0.00019544748647604138,
        -0.03793548420071602,
        0.9985755085945129
      ],
      "scale": [
        1.0,
        0.9999998807907104,
        1.0
      ],
      "translation": [
        -1.426943470050901e-07,
        3.211503028869629,
        2.32479493433857e-07
      ]
    },
    {
      "name": "L_ForearmTwist_61",
      "rotation": [
        -0.5326396822929382,
        -0.0520506426692009,
        -0.46508166193962097,
        0.7051842212677002
      ],
      "scale": [
        0.9999999403953552,
        1.0000001192092896,
        1.0000001192092896
      ],
      "translation": [
        3.6439882933336776e-06,
        1.4130083322525024,
        -9.64385071711149e-06
      ]
    },
    {
      "children": [
        77,
        80,
        83,
        86,
        89
      ],
      "name": "Left wrist_77",
      "rotation": [
        0.01711709424853325,
        -0.5151321291923523,
        0.7068811058998108,
        0.4844224452972412
      ],
      "scale": [
        1.0,
        0.9999999403953552,
        1.0
      ],
      "translation": [
        -6.098355811445799e-07,
        2.8736350536346436,
        -7.228541107906494e-07
      ]
    },
    {
      "children": [
        78
      ],
      "name": "Thumb0_L_64",
      "rotation": [
        -0.4074607789516449,
        0.5424294471740723,
        -0.3562975227832794,
        0.6424936652183533
      ],
      "scale": [
        1.0,
        1.0,
        0.9999998807907104
      ],
      "translation": [
        -0.0811990424990654,
        0.0594937801361084,
        -0.33361271023750305
      ]
    },
    {
      "children": [
        79
      ],
      "name": "Thumb1_L_63",
      "rotation": [
        2.315361052751541e-05,
        1.2598931789398193e-05,
        -6.929034270797274e-07,
        1.0
      ],
      "scale": [
        1.0000001192092896,
        1.0000001192092896,
        1.0
      ],
      "translation": [
        1.158570739789866e-06,
        0.3099680542945862,
        4.916922762276954e-07
      ]
    },
    {
      "name": "Thumb2_L_62",
      "rotation": [
        0.6664779186248779,
        -0.17192474007606506,
        0.23627716302871704,
        0.68587327003479
      ],
      "scale": [
        0.9999999403953552,
        1.0,
        1.0
      ],
      "translation": [
        2.4400043230343726e-07,
        0.3900097608566284,
        -1.1762496114897658e-06
      ]
    },
    {
      "children": [
        81
      ],
      "name": "IndexFinger1_L_67",
      "rotation": [
        -0.03580005094408989,
        0.5278927683830261,
        -0.7061979174613953,
        0.4704594314098358
      ],
      "scale": [
        0.9999998807907104,
        0.9999997615814209,
        0.9999998807907104
      ],
      "translation": [
        0.22285908460617065,
        0.012102195993065834,
        -0.7774474024772644
      ]
    },
    {
      "children": [
        82
      ],
      "name": "IndexFinger2_L_66",
      "rotation": [
        -8.009374141693115e-08,
        -1.7763568394002505e-15,
        -2.7194619178771973e-07,
        1.0
      ],
      "scale": [
        1.0000001192092896,
        1.000000238418579,
        1.0
      ],
      "translation": [
        -4.321335325130349e-07,
        0.4400211572647095,
        -5.96046660916727e-08
      ]
    },
    {
      "name": "IndexFinger3_L_65",
      "rotation": [
        0.03580469638109207,
        -0.5278929471969604,
        0.7062024474143982,
        0.47045212984085083
      ],
      "scale": [
        0.9999999403953552,
        0.9999998211860657,
        0.9999999403953552
      ],
      "translation": [
        -6.595281547561171e-07,
        0.24998979270458221,
        -1.1068294725191663e-07
      ]
    },
    {
      "children": [
        84
      ],
      "name": "MiddleFinger1_L_70",
      "rotation": [
        -0.027792660519480705,
        0.5149835348129272,
        -0.6960350275039673,
        0.4995545744895935
      ],
      "scale": [
        1.0,
        0.9999999403953552,
        1.0
      ],
      "translation": [
        0.4096432626247406,
        -0.014763548038899899,
        -0.650892436504364
      ]
    },
    {
      "children": [
        85
      ],
      "name": "MiddleFinger2_L_69",
      "rotation": [
        9.648503009884735e-07,
        1.5981495380401611e-06,
        -1.1110678315162659e-06,
        1.0
      ],
      "scale": [
        1.0,
        0.9999999403953552,
        1.0
      ],
      "translation": [
        -9.932549573932192e-07,
        0.4600197970867157,
        -3.3993228498729877e-07
      ]
    },
    {
      "name": "MiddleFinger3_L_68",
      "rotation": [
        0.038662396371364594,
        -0.5147738456726074,
        0.7060514092445374,
        0.4847727119922638
      ],
      "scale": [
        0.9999999403953552,
        1.0,
        1.0
      ],
      "translation": [
        1.036733351611474e-06,
        0.28999951481819153,
        2.3525287815573392e-06
      ]
    },
    {
      "children": [
        87
      ],
      "name": "RingFinger1_L_73",
      "rotation": [
        -0.03228391334414482,
        0.5147558450698853,
        -0.6912398338317871,
        0.506134033203125
      ],
      "scale": [
        1.0,
        1.0000001192092896,
        0.9999998807907104
      ],
      "translation": [
        0.5699971318244934,
        -0.014481502585113049,
        -0.4995191693305969
      ]
    },
    {
      "children": [
        88
      ],
      "name": "RingFinger2_L_72",
      "rotation": [
        1.0700896382331848e-06,
        1.7061829566955566e-06,
        -1.2097880244255066e-06,
        1.0
      ],
      "scale": [
        1.0,
        0.9999999403953552,
        1.0
      ],
      "translation": [
        8.791690788712003e-07,
        0.4399489760398865,
        -7.152584657887928e-07
      ]
    },
    {
      "name": "RingFinger3_L_71",
      "rotation": [
        0.04794130101799965,
        -0.514594554901123,
        0.7054775357246399,
        0.48496973514556885
      ],
      "translation": [
        1.0863572015296086e-06,
        0.270029753446579,
        -3.445647962507792e-07
      ]
    },
    {
      "children": [
        90
      ],
      "name": "LittleFinger1_L_76",
      "rotation": [
        -0.01664266176521778,
        0.5115208625793457,
        -0.7022786140441895,
        0.49484768509864807
      ],
      "scale": [
        0.9999999403953552,
        1.0,
        1.0
      ],
      "translation": [
        0.6764547228813171,
        0.00455258134752512,
        -0.3364623785018921
      ]
    },
    {
      "children": [
        91
      ],
      "name": "LittleFinger2_L_75",
      "rotation": [
        2.444721758365631e-07,
        4.917383193969727e-07,
        -4.2654573917388916e-07,
        1.0
      ],
      "translation": [
        5.960466751275817e-07,
        0.4000200629234314,
        -5.066393669039826e-07
      ]
    },
    {
      "name": "LittleFinger3_L_74",
      "rotation": [
        0.021447068080306053,
        -0.5113742351531982,
        0.7067816853523254,
        0.488360732793808
      ],
      "scale": [
        1.000000238418579,
        1.000000238418579,
        1.0
      ],
      "translation": [
        -5.323445293470286e-07,
        0.21997126936912537,
        -6.111881702963728e-07
      ]
    },
    {
      "name": "L_ShoulderTwist_79",
      "rotation": [
        -0.30248844623565674,
        0.22541263699531555,
        -0.6391462683677673,
        0.6702104210853577
      ],
      "scale": [
        0.9999997019767761,
        0.9999997615814209,
        0.9999999403953552
      ],
      "translation": [
        4.811307917407248e-06,
        1.6381956129407627e-06,
        -1.2781384839399834e-06
      ]
    },
    {
      "name": "CAS_L_Breast_82",
      "rotation": [
        3.262032777229251e-08,
        -0.6656480431556702,
        -0.7462658286094666,
        2.9096399956074492e-08
      ],
      "scale": [
        1.0,
        1.0000004768371582,
        1.0
      ],
      "translation": [
        0.7403499484062195,
        1.165743112564087,
        1.0593757629394531
      ]
    },
    {
      "name": "CAS_R_Breast_83",
      "rotation": [
        3.262032777229251e-08,
        -0.6656479239463806,
        -0.7462659478187561,
        2.9096394627003974e-08
      ],
      "translation": [
        -0.7403499484062195,
        1.1657135486602783,
        1.0593725442886353
      ]
    },
    {
      "children": [
        96,
        99,
        100
      ],
      "name": "Left leg_91",
      "rotation": [
        0.9995750188827515,
        0.018574189394712448,
        0.018604964017868042,
        0.012594904750585556
      ],
      "scale": [
        0.9999142289161682,
        0.9999999403953552,
        0.9999573230743408
      ],
      "translation": [
        0.6603111028671265,
        -0.38616085052490234,
        -0.000132792629301548
      ]
    },
    {
      "children": [
        97
      ],
      "name": "Left knee_88",
      "rotation": [
        0.03955996781587601,
        1.4850229490548372e-07,
        0.0014518292155116796,
        0.9992161393165588
      ],
      "scale": [
        0.9999999403953552,
        1.0,
        1.0
      ],
      "translation": [
        3.4939816373480426e-08,
        4.842260360717773,
        4.8826986898120595e-08
      ]
    },
    {
      "children": [
        98
      ],
      "name": "Left ankle_87",
      "rotation": [
        -0.41746485233306885,
        -3.2732375530031277e-06,
        -0.015319259837269783,
        0.9085639715194702
      ],
      "scale": [
        0.9999999403953552,
        1.0,
        0.9999999403953552
      ],
      "translation": [
        5.318287321642856e-08,
        4.191964626312256,
        1.0424729168789781e-07
      ]
    },
    {
      "name": "Left toe_86",
      "rotation": [
        -0.9187283515930176,
        2.100910478475271e-06,
        -0.03371783345937729,
        0.39344799518585205
      ],
      "scale": [
        1.0000001192092896,
        1.0,
        1.0
      ],
      "translation": [
        -8.283949171072891e-08,
        1.5957108736038208,
        -6.841963084980307e-08
      ]
    },
    {
      "name": "L_Skirt_89",
      "rotation": [
        -0.7056109309196472,
        -0.0012055535335093737,
        -0.024723714217543602,
        0.7081670761108398
      ],
      "scale": [
        1.0,
        0.9999999403953552,
        1.0
      ],
      "translation": [
        -3.2846212434378685e-06,
        -7.088613983796677e-06,
        1.016825990518555e-05
      ]
    },
    {
      "name": "L_ThighTwist_90",
      "rotation": [
        -0.7066256999969482,
        0.000148079008795321,
        -0.02608080394566059,
        0.7071067094802856
      ],
      "scale": [
        1.0,
        1.0,
        1.000000238418579
      ],
      "translation": [
        7.178594785273162e-08,
        -1.9262540718045784e-06,
        -2.695648149142471e-10
      ]
    },
    {
      "children": [
        102,
        105,
        106
      ],
      "name": "Right leg_97",
      "rotation": [
        0.9995760321617126,
        -0.018574094399809837,
        -0.018570682033896446,
        0.012564262375235558
      ],
      "scale": [
        1.000009536743164,
        1.0,
        1.000004768371582
      ],
      "translation": [
        -0.6603109836578369,
        -0.3861713409423828,
        -0.00014408254355657846
      ]
    },
    {
      "children": [
        103
      ],
      "name": "Right knee_94",
      "rotation": [
        0.03948146849870682,
        -2.6335519009990094e-07,
        -0.0014487769221886992,
        0.9992192387580872
      ],
      "scale": [
        0.9999998211860657,
        0.9999999403953552,
        0.9999998211860657
      ],
      "translation": [
        4.425594823942447e-08,
        4.842259883880615,
        -6.365362992255541e-08
      ]
    },
    {
      "children": [
        104
      ],
      "name": "Right ankle_93",
      "rotation": [
        -0.417451411485672,
        5.666431661666138e-06,
        0.015315721742808819,
        0.9085701704025269
      ],
      "scale": [
        0.9999998211860657,
        0.9999998211860657,
        1.0
      ],
      "translation": [
        -3.6701987227161226e-08,
        4.1919636726379395,
        4.301443823351292e-08
      ]
    },
    {
      "name": "Right toe_92",
      "rotation": [
        -0.9187331199645996,
        -5.738065738114528e-06,
        0.033714309334754944,
        0.39343714714050293
      ],
      "scale": [
        1.0000001192092896,
        1.0,
        1.0000001192092896
      ],
      "translation": [
        -2.2027332136076438e-07,
        1.5956642627716064,
        8.000309748013024e-08
      ]
    },
    {
      "name": "R_Skirt_95",
      "rotation": [
        -0.7056090831756592,
        0.0011498488020151854,
        0.024776116013526917,
        0.7081671357154846
      ],
      "scale": [
        1.0,
        0.9999997615814209,
        0.9999998807907104
      ],
      "translation": [
        3.2366408504458377e-06,
        4.129442913836101e-06,
        1.1516417544044089e-06
      ]
    },
    {
      "name": "R_ThighTwist_96",
      "rotation": [
        -0.7066205739974976,
        -0.00019593846809584647,
        0.026125583797693253,
        0.7071102261543274
      ],
      "scale": [
        0.9999997615814209,
        0.9999997615814209,
        0.9999998211860657
      ],
      "translation": [
        2.476158158515318e-07,
        4.584304633681313e-07,
        2.2938776211844925e-08
      ]
    }
  ],
  "samplers": [
    {
      "magFilter": 9729,
      "minFilter": 9987,
      "wrapS": 10497,
      "wrapT": 10497
    }
  ],
  "scene": 0,
  "scenes": [
    {
      "name": "Sketchfab_Scene",
      "nodes": [
        0
      ]
    }
  ],
  "skins": [
    {
      "inverseBindMatrices": 5,
      "joints": [
        5,
        8,
        9,
        10,
        11,
        12,
        13,
        14,
        15,
        16,
        17,
        18,
        19,
        20,
        21,
        22,
        23,
        24,
        25,
        26,
        27,
        28,
        29,
        30,
        31,
        32,
        33,
        34,
        35,
        36,
        37,
        38,
        39,
        40,
        41,
        42,
        43,
        44,
        45,
        46,
        47,
        48,
        49,
        50,
        51,
        52,
        53,
        54,
        55,
        56,
        57,
        58,
        59,
        60,
        61,
        62,
        63,
        64,
        65,
        66,
        67,
        68,
        69,
        70,
        71,
        72,
        73,
        74,
        75,
        76,
        77,
        78,
        79,
        80,
        81,
        82,
        83,
        84,
        85,
        86,
        87,
        88,
        89,
        90,
        91,
        92,
        93,
        94,
        95,
        96,
        97,
        98,
        99,
        100,
        101,
        102,
        103,
        104,
        105,
        106
      ],
      "skeleton": 5
    }
  ],
  "textures": [
    {
      "sampler": 0,
      "source": 0
    }
  ]
}
