{
	"asset":{
		"generator":"Khronos glTF Blender I/O v4.2.69",
		"version":"2.0"
	},
	"scene":0,
	"scenes":[
		{
			"name":"Scene",
			"nodes":[
				15,
				16
			]
		}
	],
	"nodes":[
		{
			"mesh":0,
			"name":"Material2"
		},
		{
			"mesh":1,
			"name":"Material2.001"
		},
		{
			"name":"Material2.002"
		},
		{
			"mesh":2,
			"name":"Material3"
		},
		{
			"mesh":3,
			"name":"Material3.001"
		},
		{
			"mesh":4,
			"name":"Material3.002"
		},
		{
			"mesh":5,
			"name":"Material3.003"
		},
		{
			"mesh":6,
			"name":"Material3.004"
		},
		{
			"mesh":7,
			"name":"Material3.005"
		},
		{
			"mesh":8,
			"name":"Material3.006"
		},
		{
			"mesh":9,
			"name":"Material3.007"
		},
		{
			"name":"ID1",
			"translation":[
				-6.087037490942748e-06,
				1.239776611328125e-05,
				4.291534423828125e-06
			]
		},
		{
			"children":[
				11
			],
			"name":"skp_camera_Last_Saved_SketchUp_View",
			"rotation":[
				0.3848477900028229,
				-0.06101877614855766,
				-0.14421969652175903,
				0.909598708152771
			],
			"translation":[
				-14.066450119018555,
				-191.34719848632812,
				280.49420166015625
			]
		},
		{
			"children":[
				12
			],
			"name":"SketchUp"
		},
		{
			"children":[
				0,
				1,
				2,
				3,
				4,
				5,
				6,
				7,
				8,
				9,
				10,
				13
			],
			"name":"Collada visual scene group"
		},
		{
			"children":[
				14
			],
			"name":"Sketchfab_model",
			"rotation":[
				-0.70710688829422,
				0,
				0,
				0.7071066498756409
			]
		},
		{
			"mesh":10,
			"name":"Plane",
			"scale":[
				200,
				9.525400161743164,
				200
			],
			"translation":[
				54.55769729614258,
				-0.3145993947982788,
				-45.5095329284668
			]
		}
	],
	"materials":[
		{
			"name":"auto",
			"pbrMetallicRoughness":{
				"baseColorTexture":{
					"index":0
				},
				"metallicFactor":0,
				"roughnessFactor":0.6000000238418579
			}
		},
		{
			"name":"material_1",
			"pbrMetallicRoughness":{
				"baseColorTexture":{
					"index":1
				},
				"metallicFactor":0,
				"roughnessFactor":0.6000000238418579
			}
		},
		{
			"name":"auto_1",
			"pbrMetallicRoughness":{
				"baseColorTexture":{
					"index":2
				},
				"metallicFactor":0,
				"roughnessFactor":0.6000000238418579
			}
		},
		{
			"name":"auto_2",
			"pbrMetallicRoughness":{
				"baseColorTexture":{
					"index":3
				},
				"metallicFactor":0,
				"roughnessFactor":0.6000000238418579
			}
		},
		{
			"name":"auto_3",
			"pbrMetallicRoughness":{
				"baseColorTexture":{
					"index":4
				},
				"metallicFactor":0,
				"roughnessFactor":0.6000000238418579
			}
		},
		{
			"name":"auto_4",
			"pbrMetallicRoughness":{
				"baseColorTexture":{
					"index":5
				},
				"metallicFactor":0,
				"roughnessFactor":0.6000000238418579
			}
		},
		{
			"name":"auto_5",
			"pbrMetallicRoughness":{
				"baseColorTexture":{
					"index":6
				},
				"metallicFactor":0,
				"roughnessFactor":0.6000000238418579
			}
		},
		{
			"alphaMode":"BLEND",
			"name":"auto_6",
			"pbrMetallicRoughness":{
				"baseColorTexture":{
					"index":7
				},
				"metallicFactor":0,
				"roughnessFactor":0.6000000238418579
			}
		},
		{
			"name":"auto_8",
			"pbrMetallicRoughness":{
				"baseColorTexture":{
					"index":8
				},
				"metallicFactor":0,
				"roughnessFactor":0.6000000238418579
			}
		},
		{
			"name":"auto_9",
			"pbrMetallicRoughness":{
				"baseColorTexture":{
					"index":9
				},
				"metallicFactor":0,
				"roughnessFactor":0.6000000238418579
			}
		}
	],
	"meshes":[
		{
			"name":"Material2",
			"primitives":[
				{
					"attributes":{
						"POSITION":0,
						"NORMAL":1,
						"TEXCOORD_0":2,
						"TANGENT":3
					},
					"indices":4,
					"material":0
				}
			]
		},
		{
			"name":"Material2.001",
			"primitives":[
				{
					"attributes":{
						"POSITION":5,
						"NORMAL":6,
						"TEXCOORD_0":7,
						"TEXCOORD_1":8,
						"TANGENT":9
					},
					"indices":10,
					"material":1
				}
			]
		},
		{
			"name":"Material3",
			"primitives":[
				{
					"attributes":{
						"POSITION":11,
						"NORMAL":12,
						"TEXCOORD_0":13,
						"TEXCOORD_1":14,
						"TANGENT":15
					},
					"indices":16,
					"material":2
				}
			]
		},
		{
			"name":"Material3.001",
			"primitives":[
				{
					"attributes":{
						"POSITION":17,
						"NORMAL":18,
						"TEXCOORD_0":19,
						"TANGENT":20
					},
					"indices":21,
					"material":3
				}
			]
		},
		{
			"name":"Material3.002",
			"primitives":[
				{
					"attributes":{
						"POSITION":22,
						"NORMAL":23,
						"TEXCOORD_0":24,
						"TANGENT":25
					},
					"indices":26,
					"material":4
				}
			]
		},
		{
			"name":"Material3.003",
			"primitives":[
				{
					"attributes":{
						"POSITION":27,
						"NORMAL":28,
						"TEXCOORD_0":29,
						"TANGENT":30
					},
					"indices":31,
					"material":5
				}
			]
		},
		{
			"name":"Material3.004",
			"primitives":[
				{
					"attributes":{
						"POSITION":32,
						"NORMAL":33,
						"TEXCOORD_0":34,
						"TANGENT":35
					},
					"indices":36,
					"material":6
				}
			]
		},
		{
			"name":"Material3.005",
			"primitives":[
				{
					"attributes":{
						"POSITION":37,
						"NORMAL":38,
						"TEXCOORD_0":39,
						"TEXCOORD_1":40,
						"TANGENT":41
					},
					"indices":42,
					"material":7
				}
			]
		},
		{
			"name":"Material3.006",
			"primitives":[
				{
					"attributes":{
						"POSITION":43,
						"NORMAL":44,
						"TEXCOORD_0":45,
						"TANGENT":46
					},
					"indices":47,
					"material":8
				}
			]
		},
		{
			"name":"Material3.007",
			"primitives":[
				{
					"attributes":{
						"POSITION":48,
						"NORMAL":49,
						"TEXCOORD_0":50,
						"TANGENT":51
					},
					"indices":52,
					"material":9
				}
			]
		},
		{
			"name":"Plane",
			"primitives":[
				{
					"attributes":{
						"POSITION":53,
						"NORMAL":54,
						"TEXCOORD_0":55,
						"TANGENT":56
					},
					"indices":57
				}
			]
		}
	],
	"textures":[
		{
			"sampler":0,
			"source":0
		},
		{
			"sampler":0,
			"source":1
		},
		{
			"sampler":0,
			"source":2
		},
		{
			"sampler":0,
			"source":3
		},
		{
			"sampler":0,
			"source":4
		},
		{
			"sampler":0,
			"source":5
		},
		{
			"sampler":0,
			"source":6
		},
		{
			"sampler":0,
			"source":7
		},
		{
			"sampler":0,
			"source":8
		},
		{
			"sampler":0,
			"source":9
		}
	],
	"images":[
		{
			"mimeType":"image/png",
			"name":"auto_baseColor",
			"uri":"auto_baseColor.png"
		},
		{
			"mimeType":"image/png",
			"name":"material_1_baseColor",
			"uri":"material_1_baseColor.png"
		},
		{
			"mimeType":"image/png",
			"name":"auto_1_baseColor",
			"uri":"auto_1_baseColor.png"
		},
		{
			"mimeType":"image/png",
			"name":"auto_2_baseColor",
			"uri":"auto_2_baseColor.png"
		},
		{
			"mimeType":"image/png",
			"name":"auto_3_baseColor",
			"uri":"auto_3_baseColor.png"
		},
		{
			"mimeType":"image/png",
			"name":"auto_4_baseColor",
			"uri":"auto_4_baseColor.png"
		},
		{
			"mimeType":"image/png",
			"name":"auto_5_baseColor",
			"uri":"auto_5_baseColor.png"
		},
		{
			"mimeType":"image/png",
			"name":"auto_6_baseColor",
			"uri":"auto_6_baseColor.png"
		},
		{
			"mimeType":"image/png",
			"name":"auto_8_baseColor",
			"uri":"auto_8_baseColor.png"
		},
		{
			"mimeType":"image/png",
			"name":"auto_9_baseColor",
			"uri":"auto_9_baseColor.png"
		}
	],
	"accessors":[
		{
			"bufferView":0,
			"componentType":5126,
			"count":7266,
			"max":[
				101.31452178955078,
				113.48666381835938,
				64.55908966064453
			],
			"min":[
				3.2370104789733887,
				15.529932022094727,
				0.013850362971425056
			],
			"type":"VEC3"
		},
		{
			"bufferView":1,
			"componentType":5126,
			"count":7266,
			"type":"VEC3"
		},
		{
			"bufferView":2,
			"componentType":5126,
			"count":7266,
			"type":"VEC2"
		},
		{
			"bufferView":3,
			"componentType":5126,
			"count":7266,
			"type":"VEC4"
		},
		{
			"bufferView":4,
			"componentType":5123,
			"count":10410,
			"type":"SCALAR"
		},
		{
			"bufferView":5,
			"componentType":5126,
			"count":48578,
			"max":[
				105.61846160888672,
				117.97480773925781,
				84.96849060058594
			],
			"min":[
				-4.39453117451194e-07,
				1.7333984487777343e-06,
				1.9444774956856037e-10
			],
			"type":"VEC3"
		},
		{
			"bufferView":6,
			"componentType":5126,
			"count":48578,
			"type":"VEC3"
		},
		{
			"bufferView":7,
			"componentType":5126,
			"count":48578,
			"type":"VEC2"
		},
		{
			"bufferView":8,
			"componentType":5126,
			"count":48578,
			"type":"VEC2"
		},
		{
			"bufferView":9,
			"componentType":5126,
			"count":48578,
			"type":"VEC4"
		},
		{
			"bufferView":10,
			"componentType":5123,
			"count":49497,
			"type":"SCALAR"
		},
		{
			"bufferView":11,
			"componentType":5126,
			"count":12529,
			"max":[
				102.79873657226562,
				117.72966003417969,
				84.96849060058594
			],
			"min":[
				2.483581066131592,
				0.01566869579255581,
				0.0007477353210560977
			],
			"type":"VEC3"
		},
		{
			"bufferView":12,
			"componentType":5126,
			"count":12529,
			"type":"VEC3"
		},
		{
			"bufferView":13,
			"componentType":5126,
			"count":12529,
			"type":"VEC2"
		},
		{
			"bufferView":14,
			"componentType":5126,
			"count":12529,
			"type":"VEC2"
		},
		{
			"bufferView":15,
			"componentType":5126,
			"count":12529,
			"type":"VEC4"
		},
		{
			"bufferView":16,
			"componentType":5123,
			"count":13089,
			"type":"SCALAR"
		},
		{
			"bufferView":17,
			"componentType":5126,
			"count":1158,
			"max":[
				104.78582000732422,
				91.40087127685547,
				55.81290817260742
			],
			"min":[
				98.5994873046875,
				66.47118377685547,
				0.15916700661182404
			],
			"type":"VEC3"
		},
		{
			"bufferView":18,
			"componentType":5126,
			"count":1158,
			"type":"VEC3"
		},
		{
			"bufferView":19,
			"componentType":5126,
			"count":1158,
			"type":"VEC2"
		},
		{
			"bufferView":20,
			"componentType":5126,
			"count":1158,
			"type":"VEC4"
		},
		{
			"bufferView":21,
			"componentType":5123,
			"count":1674,
			"type":"SCALAR"
		},
		{
			"bufferView":22,
			"componentType":5126,
			"count":7831,
			"max":[
				86.13822937011719,
				97.44898223876953,
				34.53593826293945
			],
			"min":[
				18.610000610351562,
				30.033279418945312,
				0.03259239345788956
			],
			"type":"VEC3"
		},
		{
			"bufferView":23,
			"componentType":5126,
			"count":7831,
			"type":"VEC3"
		},
		{
			"bufferView":24,
			"componentType":5126,
			"count":7831,
			"type":"VEC2"
		},
		{
			"bufferView":25,
			"componentType":5126,
			"count":7831,
			"type":"VEC4"
		},
		{
			"bufferView":26,
			"componentType":5123,
			"count":11337,
			"type":"SCALAR"
		},
		{
			"bufferView":27,
			"componentType":5126,
			"count":5192,
			"max":[
				102.79873657226562,
				116.74346923828125,
				84.96849060058594
			],
			"min":[
				2.578700542449951,
				1.7333984487777343e-06,
				0.013220641762018204
			],
			"type":"VEC3"
		},
		{
			"bufferView":28,
			"componentType":5126,
			"count":5192,
			"type":"VEC3"
		},
		{
			"bufferView":29,
			"componentType":5126,
			"count":5192,
			"type":"VEC2"
		},
		{
			"bufferView":30,
			"componentType":5126,
			"count":5192,
			"type":"VEC4"
		},
		{
			"bufferView":31,
			"componentType":5123,
			"count":6294,
			"type":"SCALAR"
		},
		{
			"bufferView":32,
			"componentType":5126,
			"count":1178,
			"max":[
				99.37971496582031,
				116.49722290039062,
				22.3671875
			],
			"min":[
				68.4361801147461,
				20.848909378051758,
				0.13310930132865906
			],
			"type":"VEC3"
		},
		{
			"bufferView":33,
			"componentType":5126,
			"count":1178,
			"type":"VEC3"
		},
		{
			"bufferView":34,
			"componentType":5126,
			"count":1178,
			"type":"VEC2"
		},
		{
			"bufferView":35,
			"componentType":5126,
			"count":1178,
			"type":"VEC4"
		},
		{
			"bufferView":36,
			"componentType":5123,
			"count":1578,
			"type":"SCALAR"
		},
		{
			"bufferView":37,
			"componentType":5126,
			"count":18,
			"max":[
				90.17578125,
				102.6974868774414,
				62.16179656982422
			],
			"min":[
				15.293258666992188,
				15.586221694946289,
				4.265742778778076
			],
			"type":"VEC3"
		},
		{
			"bufferView":38,
			"componentType":5126,
			"count":18,
			"type":"VEC3"
		},
		{
			"bufferView":39,
			"componentType":5126,
			"count":18,
			"type":"VEC2"
		},
		{
			"bufferView":40,
			"componentType":5126,
			"count":18,
			"type":"VEC2"
		},
		{
			"bufferView":41,
			"componentType":5126,
			"count":18,
			"type":"VEC4"
		},
		{
			"bufferView":42,
			"componentType":5123,
			"count":24,
			"type":"SCALAR"
		},
		{
			"bufferView":43,
			"componentType":5126,
			"count":1877,
			"max":[
				105.61846160888672,
				117.97480773925781,
				84.96849060058594
			],
			"min":[
				-4.39453117451194e-07,
				0.5362299084663391,
				1.9444774956856037e-10
			],
			"type":"VEC3"
		},
		{
			"bufferView":44,
			"componentType":5126,
			"count":1877,
			"type":"VEC3"
		},
		{
			"bufferView":45,
			"componentType":5126,
			"count":1877,
			"type":"VEC2"
		},
		{
			"bufferView":46,
			"componentType":5126,
			"count":1877,
			"type":"VEC4"
		},
		{
			"bufferView":47,
			"componentType":5123,
			"count":2562,
			"type":"SCALAR"
		},
		{
			"bufferView":48,
			"componentType":5126,
			"count":1964,
			"max":[
				102.2844467163086,
				117.72966003417969,
				84.94657897949219
			],
			"min":[
				2.578700542449951,
				1.7333984487777343e-06,
				0.0037767624016851187
			],
			"type":"VEC3"
		},
		{
			"bufferView":49,
			"componentType":5126,
			"count":1964,
			"type":"VEC3"
		},
		{
			"bufferView":50,
			"componentType":5126,
			"count":1964,
			"type":"VEC2"
		},
		{
			"bufferView":51,
			"componentType":5126,
			"count":1964,
			"type":"VEC4"
		},
		{
			"bufferView":52,
			"componentType":5123,
			"count":2529,
			"type":"SCALAR"
		},
		{
			"bufferView":53,
			"componentType":5126,
			"count":4,
			"max":[
				1,
				0,
				1
			],
			"min":[
				-1,
				0,
				-1
			],
			"type":"VEC3"
		},
		{
			"bufferView":54,
			"componentType":5126,
			"count":4,
			"type":"VEC3"
		},
		{
			"bufferView":55,
			"componentType":5126,
			"count":4,
			"type":"VEC2"
		},
		{
			"bufferView":56,
			"componentType":5126,
			"count":4,
			"type":"VEC4"
		},
		{
			"bufferView":57,
			"componentType":5123,
			"count":6,
			"type":"SCALAR"
		}
	],
	"bufferViews":[
		{
			"buffer":0,
			"byteLength":87192,
			"byteOffset":0,
			"target":34962
		},
		{
			"buffer":0,
			"byteLength":87192,
			"byteOffset":87192,
			"target":34962
		},
		{
			"buffer":0,
			"byteLength":58128,
			"byteOffset":174384,
			"target":34962
		},
		{
			"buffer":0,
			"byteLength":116256,
			"byteOffset":232512,
			"target":34962
		},
		{
			"buffer":0,
			"byteLength":20820,
			"byteOffset":348768,
			"target":34963
		},
		{
			"buffer":0,
			"byteLength":582936,
			"byteOffset":369588,
			"target":34962
		},
		{
			"buffer":0,
			"byteLength":582936,
			"byteOffset":952524,
			"target":34962
		},
		{
			"buffer":0,
			"byteLength":388624,
			"byteOffset":1535460,
			"target":34962
		},
		{
			"buffer":0,
			"byteLength":388624,
			"byteOffset":1924084,
			"target":34962
		},
		{
			"buffer":0,
			"byteLength":777248,
			"byteOffset":2312708,
			"target":34962
		},
		{
			"buffer":0,
			"byteLength":98994,
			"byteOffset":3089956,
			"target":34963
		},
		{
			"buffer":0,
			"byteLength":150348,
			"byteOffset":3188952,
			"target":34962
		},
		{
			"buffer":0,
			"byteLength":150348,
			"byteOffset":3339300,
			"target":34962
		},
		{
			"buffer":0,
			"byteLength":100232,
			"byteOffset":3489648,
			"target":34962
		},
		{
			"buffer":0,
			"byteLength":100232,
			"byteOffset":3589880,
			"target":34962
		},
		{
			"buffer":0,
			"byteLength":200464,
			"byteOffset":3690112,
			"target":34962
		},
		{
			"buffer":0,
			"byteLength":26178,
			"byteOffset":3890576,
			"target":34963
		},
		{
			"buffer":0,
			"byteLength":13896,
			"byteOffset":3916756,
			"target":34962
		},
		{
			"buffer":0,
			"byteLength":13896,
			"byteOffset":3930652,
			"target":34962
		},
		{
			"buffer":0,
			"byteLength":9264,
			"byteOffset":3944548,
			"target":34962
		},
		{
			"buffer":0,
			"byteLength":18528,
			"byteOffset":3953812,
			"target":34962
		},
		{
			"buffer":0,
			"byteLength":3348,
			"byteOffset":3972340,
			"target":34963
		},
		{
			"buffer":0,
			"byteLength":93972,
			"byteOffset":3975688,
			"target":34962
		},
		{
			"buffer":0,
			"byteLength":93972,
			"byteOffset":4069660,
			"target":34962
		},
		{
			"buffer":0,
			"byteLength":62648,
			"byteOffset":4163632,
			"target":34962
		},
		{
			"buffer":0,
			"byteLength":125296,
			"byteOffset":4226280,
			"target":34962
		},
		{
			"buffer":0,
			"byteLength":22674,
			"byteOffset":4351576,
			"target":34963
		},
		{
			"buffer":0,
			"byteLength":62304,
			"byteOffset":4374252,
			"target":34962
		},
		{
			"buffer":0,
			"byteLength":62304,
			"byteOffset":4436556,
			"target":34962
		},
		{
			"buffer":0,
			"byteLength":41536,
			"byteOffset":4498860,
			"target":34962
		},
		{
			"buffer":0,
			"byteLength":83072,
			"byteOffset":4540396,
			"target":34962
		},
		{
			"buffer":0,
			"byteLength":12588,
			"byteOffset":4623468,
			"target":34963
		},
		{
			"buffer":0,
			"byteLength":14136,
			"byteOffset":4636056,
			"target":34962
		},
		{
			"buffer":0,
			"byteLength":14136,
			"byteOffset":4650192,
			"target":34962
		},
		{
			"buffer":0,
			"byteLength":9424,
			"byteOffset":4664328,
			"target":34962
		},
		{
			"buffer":0,
			"byteLength":18848,
			"byteOffset":4673752,
			"target":34962
		},
		{
			"buffer":0,
			"byteLength":3156,
			"byteOffset":4692600,
			"target":34963
		},
		{
			"buffer":0,
			"byteLength":216,
			"byteOffset":4695756,
			"target":34962
		},
		{
			"buffer":0,
			"byteLength":216,
			"byteOffset":4695972,
			"target":34962
		},
		{
			"buffer":0,
			"byteLength":144,
			"byteOffset":4696188,
			"target":34962
		},
		{
			"buffer":0,
			"byteLength":144,
			"byteOffset":4696332,
			"target":34962
		},
		{
			"buffer":0,
			"byteLength":288,
			"byteOffset":4696476,
			"target":34962
		},
		{
			"buffer":0,
			"byteLength":48,
			"byteOffset":4696764,
			"target":34963
		},
		{
			"buffer":0,
			"byteLength":22524,
			"byteOffset":4696812,
			"target":34962
		},
		{
			"buffer":0,
			"byteLength":22524,
			"byteOffset":4719336,
			"target":34962
		},
		{
			"buffer":0,
			"byteLength":15016,
			"byteOffset":4741860,
			"target":34962
		},
		{
			"buffer":0,
			"byteLength":30032,
			"byteOffset":4756876,
			"target":34962
		},
		{
			"buffer":0,
			"byteLength":5124,
			"byteOffset":4786908,
			"target":34963
		},
		{
			"buffer":0,
			"byteLength":23568,
			"byteOffset":4792032,
			"target":34962
		},
		{
			"buffer":0,
			"byteLength":23568,
			"byteOffset":4815600,
			"target":34962
		},
		{
			"buffer":0,
			"byteLength":15712,
			"byteOffset":4839168,
			"target":34962
		},
		{
			"buffer":0,
			"byteLength":31424,
			"byteOffset":4854880,
			"target":34962
		},
		{
			"buffer":0,
			"byteLength":5058,
			"byteOffset":4886304,
			"target":34963
		},
		{
			"buffer":0,
			"byteLength":48,
			"byteOffset":4891364,
			"target":34962
		},
		{
			"buffer":0,
			"byteLength":48,
			"byteOffset":4891412,
			"target":34962
		},
		{
			"buffer":0,
			"byteLength":32,
			"byteOffset":4891460,
			"target":34962
		},
		{
			"buffer":0,
			"byteLength":64,
			"byteOffset":4891492,
			"target":34962
		},
		{
			"buffer":0,
			"byteLength":12,
			"byteOffset":4891556,
			"target":34963
		}
	],
	"samplers":[
		{
			"magFilter":9729,
			"minFilter":9987
		}
	],
	"buffers":[
		{
			"byteLength":4891568,
			"uri":"scene.bin"
		}
	]
}
