{
	"asset":{
		"generator":"Khronos glTF Blender I/O v4.2.69",
		"version":"2.0"
	},
	"scene":0,
	"scenes":[
		{
			"name":"Scene",
			"nodes":[
				0,
				1,
				2,
				3,
				4,
				5,
				6,
				7,
				8,
				9,
				10,
				11,
				12
			]
		}
	],
	"nodes":[
		{
			"mesh":0,
			"name":"Suzanne",
			"scale":[
				3.399930953979492,
				3.399930953979492,
				3.399930953979492
			],
			"translation":[
				0,
				11.977883338928223,
				0.7021790146827698
			]
		},
		{
			"mesh":1,
			"name":"Cylinder",
			"rotation":[
				0,
				0,
				-1,
				0
			],
			"scale":[
				-2.615875005722046,
				-6.257612705230713,
				-1.8445324897766113
			],
			"translation":[
				0,
				6.257999897003174,
				0
			]
		},
		{
			"mesh":2,
			"name":"Cone",
			"scale":[
				2.5320699214935303,
				2.5320699214935303,
				2.5320699214935303
			],
			"translation":[
				0,
				17.07158851623535,
				0
			]
		},
		{
			"mesh":3,
			"name":"Suzanne.001",
			"scale":[
				3.399930953979492,
				3.399930953979492,
				3.399930953979492
			],
			"translation":[
				13.113709449768066,
				11.977883338928223,
				0.7021790146827698
			]
		},
		{
			"mesh":4,
			"name":"Cylinder.001",
			"rotation":[
				0,
				0,
				-1,
				0
			],
			"scale":[
				-2.615875005722046,
				-6.257609844207764,
				-1.8445324897766113
			],
			"translation":[
				13.113709449768066,
				6.257609844207764,
				0
			]
		},
		{
			"mesh":5,
			"name":"Cone.001",
			"scale":[
				2.5320699214935303,
				2.5320699214935303,
				2.5320699214935303
			],
			"translation":[
				13.113709449768066,
				17.07158851623535,
				0
			]
		},
		{
			"mesh":6,
			"name":"Suzanne.002",
			"scale":[
				3.399930953979492,
				3.399930953979492,
				3.399930953979492
			],
			"translation":[
				-13.393139839172363,
				11.977883338928223,
				0.7021790146827698
			]
		},
		{
			"mesh":7,
			"name":"Cylinder.002",
			"rotation":[
				0,
				0,
				-1,
				0
			],
			"scale":[
				-2.615875005722046,
				-6.257612705230713,
				-1.8445324897766113
			],
			"translation":[
				-13.393139839172363,
				6.257609844207764,
				0
			]
		},
		{
			"mesh":8,
			"name":"Cone.002",
			"scale":[
				2.5320699214935303,
				2.5320699214935303,
				2.5320699214935303
			],
			"translation":[
				-13.393139839172363,
				17.07158851623535,
				0
			]
		},
		{
			"mesh":9,
			"name":"Plane",
			"scale":[
				22.376670837402344,
				20.269487380981445,
				20.269487380981445
			]
		},
		{
			"mesh":10,
			"name":"Cube",
			"rotation":[
				0,
				0,
				-1,
				0
			],
			"scale":[
				-1,
				-15,
				-20.508298873901367
			],
			"translation":[
				21.298707962036133,
				15.010000228881836,
				-0.159814715385437
			]
		},
		{
			"mesh":11,
			"name":"Cube.001",
			"rotation":[
				0,
				0,
				-1,
				0
			],
			"scale":[
				-1,
				-15,
				-20.508298873901367
			],
			"translation":[
				-21.405553817749023,
				15.010000228881836,
				-0.159814715385437
			]
		},
		{
			"mesh":12,
			"name":"Cube.002",
			"rotation":[
				1,
				0,
				0,
				0
			],
			"scale":[
				-22.118989944458008,
				-15,
				-1
			],
			"translation":[
				0,
				15.010000228881836,
				-19.248239517211914
			]
		}
	],
	"meshes":[
		{
			"name":"Suzanne",
			"primitives":[
				{
					"attributes":{
						"POSITION":0,
						"NORMAL":1,
						"TEXCOORD_0":2
					},
					"indices":3
				}
			]
		},
		{
			"name":"Cylinder",
			"primitives":[
				{
					"attributes":{
						"POSITION":4,
						"NORMAL":5,
						"TEXCOORD_0":6
					},
					"indices":7
				}
			]
		},
		{
			"name":"Cone",
			"primitives":[
				{
					"attributes":{
						"POSITION":8,
						"NORMAL":9,
						"TEXCOORD_0":10
					},
					"indices":11
				}
			]
		},
		{
			"name":"Suzanne.001",
			"primitives":[
				{
					"attributes":{
						"POSITION":12,
						"NORMAL":13,
						"TEXCOORD_0":14
					},
					"indices":3
				}
			]
		},
		{
			"name":"Cylinder.001",
			"primitives":[
				{
					"attributes":{
						"POSITION":15,
						"NORMAL":16,
						"TEXCOORD_0":17
					},
					"indices":7
				}
			]
		},
		{
			"name":"Cone.001",
			"primitives":[
				{
					"attributes":{
						"POSITION":18,
						"NORMAL":19,
						"TEXCOORD_0":20
					},
					"indices":11
				}
			]
		},
		{
			"name":"Suzanne.002",
			"primitives":[
				{
					"attributes":{
						"POSITION":21,
						"NORMAL":22,
						"TEXCOORD_0":23
					},
					"indices":3
				}
			]
		},
		{
			"name":"Cylinder.002",
			"primitives":[
				{
					"attributes":{
						"POSITION":24,
						"NORMAL":25,
						"TEXCOORD_0":26
					},
					"indices":7
				}
			]
		},
		{
			"name":"Cone.002",
			"primitives":[
				{
					"attributes":{
						"POSITION":27,
						"NORMAL":28,
						"TEXCOORD_0":29
					},
					"indices":11
				}
			]
		},
		{
			"name":"Plane",
			"primitives":[
				{
					"attributes":{
						"POSITION":30,
						"NORMAL":31,
						"TEXCOORD_0":32
					},
					"indices":33
				}
			]
		},
		{
			"name":"Cube.001",
			"primitives":[
				{
					"attributes":{
						"POSITION":34,
						"NORMAL":35,
						"TEXCOORD_0":36
					},
					"indices":37
				}
			]
		},
		{
			"name":"Cube.002",
			"primitives":[
				{
					"attributes":{
						"POSITION":38,
						"NORMAL":39,
						"TEXCOORD_0":40
					},
					"indices":37
				}
			]
		},
		{
			"name":"Cube.003",
			"primitives":[
				{
					"attributes":{
						"POSITION":41,
						"NORMAL":42,
						"TEXCOORD_0":43
					},
					"indices":37
				}
			]
		}
	],
	"accessors":[
		{
			"bufferView":0,
			"componentType":5126,
			"count":1966,
			"max":[
				1.3671875,
				0.984375,
				0.8515625
			],
			"min":[
				-1.3671875,
				-0.984375,
				-0.8515625
			],
			"type":"VEC3"
		},
		{
			"bufferView":1,
			"componentType":5126,
			"count":1966,
			"type":"VEC3"
		},
		{
			"bufferView":2,
			"componentType":5126,
			"count":1966,
			"type":"VEC2"
		},
		{
			"bufferView":3,
			"componentType":5123,
			"count":2904,
			"type":"SCALAR"
		},
		{
			"bufferView":4,
			"componentType":5126,
			"count":192,
			"max":[
				1,
				1,
				1
			],
			"min":[
				-1,
				-1,
				-1
			],
			"type":"VEC3"
		},
		{
			"bufferView":5,
			"componentType":5126,
			"count":192,
			"type":"VEC3"
		},
		{
			"bufferView":6,
			"componentType":5126,
			"count":192,
			"type":"VEC2"
		},
		{
			"bufferView":7,
			"componentType":5123,
			"count":372,
			"type":"SCALAR"
		},
		{
			"bufferView":8,
			"componentType":5126,
			"count":128,
			"max":[
				1,
				1,
				1
			],
			"min":[
				-1,
				-1,
				-1
			],
			"type":"VEC3"
		},
		{
			"bufferView":9,
			"componentType":5126,
			"count":128,
			"type":"VEC3"
		},
		{
			"bufferView":10,
			"componentType":5126,
			"count":128,
			"type":"VEC2"
		},
		{
			"bufferView":11,
			"componentType":5123,
			"count":186,
			"type":"SCALAR"
		},
		{
			"bufferView":12,
			"componentType":5126,
			"count":1966,
			"max":[
				1.3671875,
				0.984375,
				0.8515625
			],
			"min":[
				-1.3671875,
				-0.984375,
				-0.8515625
			],
			"type":"VEC3"
		},
		{
			"bufferView":13,
			"componentType":5126,
			"count":1966,
			"type":"VEC3"
		},
		{
			"bufferView":14,
			"componentType":5126,
			"count":1966,
			"type":"VEC2"
		},
		{
			"bufferView":15,
			"componentType":5126,
			"count":192,
			"max":[
				1,
				1,
				1
			],
			"min":[
				-1,
				-1,
				-1
			],
			"type":"VEC3"
		},
		{
			"bufferView":16,
			"componentType":5126,
			"count":192,
			"type":"VEC3"
		},
		{
			"bufferView":17,
			"componentType":5126,
			"count":192,
			"type":"VEC2"
		},
		{
			"bufferView":18,
			"componentType":5126,
			"count":128,
			"max":[
				1,
				1,
				1
			],
			"min":[
				-1,
				-1,
				-1
			],
			"type":"VEC3"
		},
		{
			"bufferView":19,
			"componentType":5126,
			"count":128,
			"type":"VEC3"
		},
		{
			"bufferView":20,
			"componentType":5126,
			"count":128,
			"type":"VEC2"
		},
		{
			"bufferView":21,
			"componentType":5126,
			"count":1966,
			"max":[
				1.3671875,
				0.984375,
				0.8515625
			],
			"min":[
				-1.3671875,
				-0.984375,
				-0.8515625
			],
			"type":"VEC3"
		},
		{
			"bufferView":22,
			"componentType":5126,
			"count":1966,
			"type":"VEC3"
		},
		{
			"bufferView":23,
			"componentType":5126,
			"count":1966,
			"type":"VEC2"
		},
		{
			"bufferView":24,
			"componentType":5126,
			"count":192,
			"max":[
				1,
				1,
				1
			],
			"min":[
				-1,
				-1,
				-1
			],
			"type":"VEC3"
		},
		{
			"bufferView":25,
			"componentType":5126,
			"count":192,
			"type":"VEC3"
		},
		{
			"bufferView":26,
			"componentType":5126,
			"count":192,
			"type":"VEC2"
		},
		{
			"bufferView":27,
			"componentType":5126,
			"count":128,
			"max":[
				1,
				1,
				1
			],
			"min":[
				-1,
				-1,
				-1
			],
			"type":"VEC3"
		},
		{
			"bufferView":28,
			"componentType":5126,
			"count":128,
			"type":"VEC3"
		},
		{
			"bufferView":29,
			"componentType":5126,
			"count":128,
			"type":"VEC2"
		},
		{
			"bufferView":30,
			"componentType":5126,
			"count":4,
			"max":[
				1,
				0,
				1
			],
			"min":[
				-1,
				0,
				-1
			],
			"type":"VEC3"
		},
		{
			"bufferView":31,
			"componentType":5126,
			"count":4,
			"type":"VEC3"
		},
		{
			"bufferView":32,
			"componentType":5126,
			"count":4,
			"type":"VEC2"
		},
		{
			"bufferView":33,
			"componentType":5123,
			"count":6,
			"type":"SCALAR"
		},
		{
			"bufferView":34,
			"componentType":5126,
			"count":24,
			"max":[
				1,
				1,
				1
			],
			"min":[
				-1,
				-1,
				-1
			],
			"type":"VEC3"
		},
		{
			"bufferView":35,
			"componentType":5126,
			"count":24,
			"type":"VEC3"
		},
		{
			"bufferView":36,
			"componentType":5126,
			"count":24,
			"type":"VEC2"
		},
		{
			"bufferView":37,
			"componentType":5123,
			"count":36,
			"type":"SCALAR"
		},
		{
			"bufferView":38,
			"componentType":5126,
			"count":24,
			"max":[
				1,
				1,
				1
			],
			"min":[
				-1,
				-1,
				-1
			],
			"type":"VEC3"
		},
		{
			"bufferView":39,
			"componentType":5126,
			"count":24,
			"type":"VEC3"
		},
		{
			"bufferView":40,
			"componentType":5126,
			"count":24,
			"type":"VEC2"
		},
		{
			"bufferView":41,
			"componentType":5126,
			"count":24,
			"max":[
				1,
				1,
				1
			],
			"min":[
				-1,
				-1,
				-1
			],
			"type":"VEC3"
		},
		{
			"bufferView":42,
			"componentType":5126,
			"count":24,
			"type":"VEC3"
		},
		{
			"bufferView":43,
			"componentType":5126,
			"count":24,
			"type":"VEC2"
		}
	],
	"bufferViews":[
		{
			"buffer":0,
			"byteLength":23592,
			"byteOffset":0,
			"target":34962
		},
		{
			"buffer":0,
			"byteLength":23592,
			"byteOffset":23592,
			"target":34962
		},
		{
			"buffer":0,
			"byteLength":15728,
			"byteOffset":47184,
			"target":34962
		},
		{
			"buffer":0,
			"byteLength":5808,
			"byteOffset":62912,
			"target":34963
		},
		{
			"buffer":0,
			"byteLength":2304,
			"byteOffset":68720,
			"target":34962
		},
		{
			"buffer":0,
			"byteLength":2304,
			"byteOffset":71024,
			"target":34962
		},
		{
			"buffer":0,
			"byteLength":1536,
			"byteOffset":73328,
			"target":34962
		},
		{
			"buffer":0,
			"byteLength":744,
			"byteOffset":74864,
			"target":34963
		},
		{
			"buffer":0,
			"byteLength":1536,
			"byteOffset":75608,
			"target":34962
		},
		{
			"buffer":0,
			"byteLength":1536,
			"byteOffset":77144,
			"target":34962
		},
		{
			"buffer":0,
			"byteLength":1024,
			"byteOffset":78680,
			"target":34962
		},
		{
			"buffer":0,
			"byteLength":372,
			"byteOffset":79704,
			"target":34963
		},
		{
			"buffer":0,
			"byteLength":23592,
			"byteOffset":80076,
			"target":34962
		},
		{
			"buffer":0,
			"byteLength":23592,
			"byteOffset":103668,
			"target":34962
		},
		{
			"buffer":0,
			"byteLength":15728,
			"byteOffset":127260,
			"target":34962
		},
		{
			"buffer":0,
			"byteLength":2304,
			"byteOffset":142988,
			"target":34962
		},
		{
			"buffer":0,
			"byteLength":2304,
			"byteOffset":145292,
			"target":34962
		},
		{
			"buffer":0,
			"byteLength":1536,
			"byteOffset":147596,
			"target":34962
		},
		{
			"buffer":0,
			"byteLength":1536,
			"byteOffset":149132,
			"target":34962
		},
		{
			"buffer":0,
			"byteLength":1536,
			"byteOffset":150668,
			"target":34962
		},
		{
			"buffer":0,
			"byteLength":1024,
			"byteOffset":152204,
			"target":34962
		},
		{
			"buffer":0,
			"byteLength":23592,
			"byteOffset":153228,
			"target":34962
		},
		{
			"buffer":0,
			"byteLength":23592,
			"byteOffset":176820,
			"target":34962
		},
		{
			"buffer":0,
			"byteLength":15728,
			"byteOffset":200412,
			"target":34962
		},
		{
			"buffer":0,
			"byteLength":2304,
			"byteOffset":216140,
			"target":34962
		},
		{
			"buffer":0,
			"byteLength":2304,
			"byteOffset":218444,
			"target":34962
		},
		{
			"buffer":0,
			"byteLength":1536,
			"byteOffset":220748,
			"target":34962
		},
		{
			"buffer":0,
			"byteLength":1536,
			"byteOffset":222284,
			"target":34962
		},
		{
			"buffer":0,
			"byteLength":1536,
			"byteOffset":223820,
			"target":34962
		},
		{
			"buffer":0,
			"byteLength":1024,
			"byteOffset":225356,
			"target":34962
		},
		{
			"buffer":0,
			"byteLength":48,
			"byteOffset":226380,
			"target":34962
		},
		{
			"buffer":0,
			"byteLength":48,
			"byteOffset":226428,
			"target":34962
		},
		{
			"buffer":0,
			"byteLength":32,
			"byteOffset":226476,
			"target":34962
		},
		{
			"buffer":0,
			"byteLength":12,
			"byteOffset":226508,
			"target":34963
		},
		{
			"buffer":0,
			"byteLength":288,
			"byteOffset":226520,
			"target":34962
		},
		{
			"buffer":0,
			"byteLength":288,
			"byteOffset":226808,
			"target":34962
		},
		{
			"buffer":0,
			"byteLength":192,
			"byteOffset":227096,
			"target":34962
		},
		{
			"buffer":0,
			"byteLength":72,
			"byteOffset":227288,
			"target":34963
		},
		{
			"buffer":0,
			"byteLength":288,
			"byteOffset":227360,
			"target":34962
		},
		{
			"buffer":0,
			"byteLength":288,
			"byteOffset":227648,
			"target":34962
		},
		{
			"buffer":0,
			"byteLength":192,
			"byteOffset":227936,
			"target":34962
		},
		{
			"buffer":0,
			"byteLength":288,
			"byteOffset":228128,
			"target":34962
		},
		{
			"buffer":0,
			"byteLength":288,
			"byteOffset":228416,
			"target":34962
		},
		{
			"buffer":0,
			"byteLength":192,
			"byteOffset":228704,
			"target":34962
		}
	],
	"buffers":[
		{
			"byteLength":228896,
			"uri":"ComplexModel.bin"
		}
	]
}
