{
	"asset":{
		"generator":"Khronos glTF Blender I/O v4.2.69",
		"version":"2.0"
	},
	"extensionsUsed":[
		"KHR_materials_unlit"
	],
	"scene":0,
	"scenes":[
		{
			"name":"Scene",
			"nodes":[
				106
			]
		}
	],
	"nodes":[
		{
			"mesh":0,
			"name":"Object_7"
		},
		{
			"name":"Wednesday Addams_99"
		},
		{
			"name":"L_Cheek_0",
			"rotation":[
				4.017490937258117e-05,
				-0.7071468234062195,
				-0.7070667147636414,
				4.017946048406884e-05
			],
			"translation":[
				0.3735199272632599,
				0.15784630179405212,
				0.864719033241272
			]
		},
		{
			"name":"L_Squint_1",
			"rotation":[
				4.017490937258117e-05,
				-0.7071468234062195,
				-0.7070667147636414,
				4.017946412204765e-05
			],
			"translation":[
				0.3979499340057373,
				0.40308746695518494,
				0.9474462270736694
			]
		},
		{
			"name":"L_InBrow_2",
			"rotation":[
				-2.533082250899543e-13,
				5.248901402410411e-08,
				-1.290950422117021e-07,
				1
			],
			"translation":[
				0.2473631501197815,
				0.2901151478290558,
				0.16232335567474365
			]
		},
		{
			"name":"L_MidBrow_3",
			"rotation":[
				-4.609705412522702e-12,
				5.239514422328284e-08,
				-3.2273725025788735e-08,
				1
			],
			"translation":[
				0.023542311042547226,
				0.2404971420764923,
				0.2287256419658661
			]
		},
		{
			"name":"L_OutBrow_4",
			"rotation":[
				-3.304830170236528e-05,
				-3.2995892979670316e-05,
				-1.2800444437743863e-07,
				1
			],
			"translation":[
				-0.18423928320407867,
				0.1122855693101883,
				0.17727702856063843
			]
		},
		{
			"name":"L_LoLid_5",
			"rotation":[
				7.501512300223112e-09,
				1.111307226797642e-18,
				5.458886381121131e-13,
				1
			],
			"translation":[
				-9.475249029833321e-09,
				-4.7727466423452825e-09,
				-1.9499566406011581e-07
			]
		},
		{
			"name":"L_UpLid_6",
			"rotation":[
				7.501512300223112e-09,
				1.111307226797642e-18,
				5.458886381121131e-13,
				1
			],
			"translation":[
				-9.475249029833321e-09,
				-4.7727466423452825e-09,
				-1.9499566406011581e-07
			]
		},
		{
			"name":"Eye_L_7",
			"rotation":[
				7.501512300223112e-09,
				1.111307226797642e-18,
				5.458886381121131e-13,
				1
			],
			"translation":[
				-9.475249029833321e-09,
				-4.7727466423452825e-09,
				-1.9499566406011581e-07
			]
		},
		{
			"children":[
				7,
				8,
				9
			],
			"name":"CAS_L_EyeScale_8",
			"rotation":[
				-3.301602555438876e-05,
				-3.299588934169151e-05,
				-3.19722630592878e-08,
				1
			],
			"translation":[
				-1.2988884009246249e-05,
				-0.011298087425529957,
				0.05659650266170502
			]
		},
		{
			"children":[
				4,
				5,
				6,
				10
			],
			"name":"CAS_L_EyeArea_9",
			"rotation":[
				5.837980279466137e-05,
				-0.7071651220321655,
				-0.7070484161376953,
				5.8389432524563745e-05
			],
			"translation":[
				0.33638995885849,
				0.6131113767623901,
				0.6926280856132507
			]
		},
		{
			"name":"R_Cheek_10",
			"rotation":[
				5.4081505368230864e-05,
				-0.7071608304977417,
				-0.7070527076721191,
				5.4089774494059384e-05
			],
			"translation":[
				-0.37352004647254944,
				0.15787681937217712,
				0.8647289872169495
			]
		},
		{
			"name":"R_Squint_11",
			"rotation":[
				5.4081505368230864e-05,
				-0.7071608304977417,
				-0.7070527076721191,
				5.4089774494059384e-05
			],
			"translation":[
				-0.39795005321502686,
				0.403066486120224,
				0.9474462866783142
			]
		},
		{
			"name":"R_InBrow_12",
			"rotation":[
				-3.305042628198862e-05,
				-3.2992717024171725e-05,
				-1.2801277193830174e-07,
				1
			],
			"translation":[
				-0.2474067509174347,
				0.2901250123977661,
				0.16219250857830048
			]
		},
		{
			"name":"R_MidBrow_13",
			"rotation":[
				-9.714819010006592e-13,
				5.7692041366408375e-08,
				-3.22757927051498e-08,
				1
			],
			"translation":[
				-0.023617777973413467,
				0.24049700796604156,
				0.22871066629886627
			]
		},
		{
			"name":"R_OutBrow_14",
			"rotation":[
				-2.5256706448484323e-13,
				5.769132371824526e-08,
				-1.2910314239888976e-07,
				1
			],
			"translation":[
				0.18418072164058685,
				0.11228546500205994,
				0.17734785377979279
			]
		},
		{
			"name":"R_LoLid_15",
			"rotation":[
				7.501512300223112e-09,
				-1.6328084717631697e-16,
				-8.111263397059254e-14,
				1
			],
			"translation":[
				-1.5165809941208863e-08,
				1.7927513695781272e-08,
				1.9655271898955107e-07
			]
		},
		{
			"name":"R_UpLid_16",
			"rotation":[
				7.501512300223112e-09,
				-1.6328084717631697e-16,
				-8.111263397059254e-14,
				1
			],
			"translation":[
				-1.5165809941208863e-08,
				1.7927513695781272e-08,
				1.9655271898955107e-07
			]
		},
		{
			"name":"Eye_R_17",
			"rotation":[
				7.501512300223112e-09,
				-1.6328084717631697e-16,
				-8.111263397059254e-14,
				1
			],
			"translation":[
				-1.5165809941208863e-08,
				1.7927513695781272e-08,
				1.9655271898955107e-07
			]
		},
		{
			"children":[
				17,
				18,
				19
			],
			"name":"CAS_R_EyeScale_18",
			"rotation":[
				3.2271152861085284e-08,
				5.7692425059485686e-08,
				-2.760305051197065e-08,
				1
			],
			"translation":[
				4.593556241161423e-06,
				-0.011298112571239471,
				0.056593142449855804
			]
		},
		{
			"children":[
				14,
				15,
				16,
				20
			],
			"name":"CAS_R_EyeArea_19",
			"rotation":[
				5.837980279466137e-05,
				-0.7071651220321655,
				-0.7070484161376953,
				5.8389432524563745e-05
			],
			"translation":[
				-0.33629003167152405,
				0.6131209135055542,
				0.692628026008606
			]
		},
		{
			"name":"CAS_NoseTip_20",
			"rotation":[
				0.024539118632674217,
				6.896511877130251e-07,
				1.7568419607982833e-08,
				0.9996988773345947
			],
			"scale":[
				1,
				1,
				0.9999999403953552
			],
			"translation":[
				2.9467774886882125e-09,
				0.08991512656211853,
				-0.11300039291381836
			]
		},
		{
			"name":"CAS_NoseBridge_21",
			"rotation":[
				1.0244549741855735e-07,
				1.255939881310503e-14,
				-1.2353070904516303e-14,
				1
			],
			"scale":[
				1,
				0.9999999403953552,
				0.9999999403953552
			],
			"translation":[
				1.0017336293799417e-08,
				-0.0874166190624237,
				-0.38414260745048523
			]
		},
		{
			"name":"CAS_L_Nostril_22",
			"rotation":[
				0.018192026764154434,
				3.1847110903981957e-07,
				5.794593693764227e-09,
				0.9998345375061035
			],
			"scale":[
				1,
				1,
				0.9999998807907104
			],
			"translation":[
				0.11892999708652496,
				-0.0003674924373626709,
				-0.10877373069524765
			]
		},
		{
			"name":"CAS_R_Nostril_23",
			"rotation":[
				0.01817215047776699,
				3.123888632217131e-07,
				5.677713854623789e-09,
				0.9998348951339722
			],
			"scale":[
				1,
				1,
				0.9999999403953552
			],
			"translation":[
				-0.11892999708652496,
				-0.00037530064582824707,
				-0.10882499068975449
			]
		},
		{
			"children":[
				22,
				23,
				24,
				25
			],
			"name":"CAS_NoseArea_24",
			"rotation":[
				0.7211951613426208,
				-1.0093935465249615e-08,
				2.9315302185750625e-08,
				0.6927319765090942
			],
			"scale":[
				1,
				1.0000001192092896,
				1
			],
			"translation":[
				-5.847125095215233e-08,
				0.18845349550247192,
				1.0588897466659546
			]
		},
		{
			"name":"L_Mouth_25",
			"rotation":[
				-5.282345227897167e-09,
				-4.0789018385112286e-08,
				-5.982085486688771e-17,
				1
			],
			"translation":[
				-0.2787277102470398,
				0.4480298161506653,
				-0.015040453523397446
			]
		},
		{
			"name":"L_UpLip_26",
			"rotation":[
				-7.05040292814374e-09,
				-4.079629434272647e-08,
				2.1602728286773676e-16,
				1
			],
			"translation":[
				-0.14461080729961395,
				0.5886614322662354,
				0.07132713496685028
			]
		},
		{
			"name":"R_Mouth_27",
			"rotation":[
				-5.282345227897167e-09,
				-4.080357030034065e-08,
				3.8415993476592636e-16,
				1
			],
			"translation":[
				0.27873221039772034,
				0.44802966713905334,
				-0.014915754087269306
			]
		},
		{
			"name":"R_UpLip_28",
			"rotation":[
				-1.8073575120070018e-05,
				-1.8107322830474004e-05,
				3.272648818608559e-10,
				1
			],
			"translation":[
				0.1445891410112381,
				0.5886614322662354,
				0.0713634118437767
			]
		},
		{
			"name":"UpLip_29",
			"rotation":[
				-7.05040292814374e-09,
				-4.0789018385112286e-08,
				2.1608149297636103e-16,
				1
			],
			"translation":[
				-1.399465782014886e-05,
				0.6464417576789856,
				0.09216856956481934
			]
		},
		{
			"children":[
				27,
				28,
				29,
				30,
				31
			],
			"name":"CAS_UpperMouthArea_30",
			"rotation":[
				5.369915015762672e-05,
				-0.7071604132652283,
				-0.7070531249046326,
				5.366823461372405e-05
			],
			"translation":[
				-2.3897637646541625e-08,
				-0.06043250486254692,
				0.4327782094478607
			]
		},
		{
			"name":"LoLip_31",
			"rotation":[
				2.5222107069566846e-08,
				5.707261152565479e-08,
				2.3095635647008006e-12,
				1
			],
			"translation":[
				8.382269697904121e-06,
				0.6064496040344238,
				-0.05527067929506302
			]
		},
		{
			"name":"L_LoLip_32",
			"rotation":[
				-1.9350194634171203e-05,
				-1.93183368537575e-05,
				-5.933291191695389e-09,
				1
			],
			"translation":[
				-0.11114501953125,
				0.579180121421814,
				-0.03263554349541664
			]
		},
		{
			"name":"R_LoLip_33",
			"rotation":[
				-1.9350194634171203e-05,
				-1.9318335034768097e-05,
				3.7381320261431483e-10,
				1
			],
			"translation":[
				0.11115492135286331,
				0.579180121421814,
				-0.0325922928750515
			]
		},
		{
			"children":[
				33,
				34,
				35
			],
			"name":"CAS_LowerMouthArea_34",
			"rotation":[
				9.139382200373802e-06,
				-0.9928346276283264,
				-0.11949623376131058,
				7.46386795071885e-05
			],
			"scale":[
				1,
				0.9999999403953552,
				0.9999998807907104
			],
			"translation":[
				-6.142739721326507e-07,
				0.1895289421081543,
				0.4706100523471832
			]
		},
		{
			"name":"CAS_Chin_35",
			"rotation":[
				-5.204791250434937e-06,
				-0.9976479411125183,
				0.06854670494794846,
				7.488159462809563e-05
			],
			"scale":[
				1,
				0.9999998211860657,
				0.9999999403953552
			],
			"translation":[
				-1.60480743277569e-12,
				0.5179465413093567,
				2.421438694000244e-06
			]
		},
		{
			"children":[
				37
			],
			"name":"CAS_JawComp_36",
			"rotation":[
				0.1872711032629013,
				-2.1258013305214263e-07,
				2.039122648511693e-07,
				0.9823082685470581
			],
			"scale":[
				1,
				0.9999999403953552,
				0.9999999403953552
			],
			"translation":[
				-7.528555556746142e-07,
				-0.04246135056018829,
				0.5767815709114075
			]
		},
		{
			"children":[
				36,
				38
			],
			"name":"Jaw_37",
			"rotation":[
				0.6174839735031128,
				4.916346370009705e-07,
				4.2004018041552627e-07,
				0.7865834832191467
			],
			"translation":[
				-8.833089815141193e-09,
				0.35168835520744324,
				0.15996354818344116
			]
		},
		{
			"children":[
				2,
				3,
				11,
				12,
				13,
				21,
				26,
				32,
				39
			],
			"name":"Head_38",
			"rotation":[
				-0.22488099336624146,
				-1.665594773214707e-08,
				-1.6261859414612445e-08,
				0.9743862748146057
			],
			"scale":[
				1,
				1,
				0.9999998807907104
			],
			"translation":[
				4.497931297168731e-14,
				0.7503565549850464,
				7.078051567077637e-08
			]
		},
		{
			"children":[
				40
			],
			"name":"Neck_39",
			"rotation":[
				0.28012412786483765,
				-1.167372953858603e-08,
				2.8451522027239662e-08,
				0.9599637985229492
			],
			"scale":[
				1,
				0.9999999403953552,
				0.9999999403953552
			],
			"translation":[
				1.4585687123152766e-15,
				3.1764845848083496,
				5.960464477539063e-08
			]
		},
		{
			"name":"R_ForearmTwist_40",
			"rotation":[
				-0.5324831604957581,
				0.0518229603767395,
				0.46525415778160095,
				0.7052053213119507
			],
			"scale":[
				1,
				0.9999998807907104,
				1
			],
			"translation":[
				1.7270445823669434e-05,
				1.4130114316940308,
				-1.4930963516235352e-05
			]
		},
		{
			"name":"Thumb2_R_41",
			"rotation":[
				0.6664796471595764,
				0.17190715670585632,
				-0.23621860146522522,
				0.6858962774276733
			],
			"scale":[
				1,
				0.9999999403953552,
				0.9999998807907104
			],
			"translation":[
				8.046627044677734e-07,
				0.39002108573913574,
				-1.1920928955078125e-07
			]
		},
		{
			"children":[
				43
			],
			"name":"Thumb1_R_42",
			"rotation":[
				3.539957106113434e-06,
				-5.2154067731180476e-08,
				-7.487834068342636e-07,
				1
			],
			"scale":[
				0.9999999403953552,
				1,
				1
			],
			"translation":[
				8.083879947662354e-07,
				0.30998915433883667,
				-5.066394805908203e-07
			]
		},
		{
			"children":[
				44
			],
			"name":"Thumb0_R_43",
			"rotation":[
				-0.40745440125465393,
				-0.5424109101295471,
				0.3562714159488678,
				0.6425279378890991
			],
			"scale":[
				0.9999999403953552,
				0.9999999403953552,
				1
			],
			"translation":[
				0.0812067836523056,
				0.05950020253658295,
				-0.333606094121933
			]
		},
		{
			"name":"LittleFinger3_R_44",
			"rotation":[
				0.021341541782021523,
				0.5113800764083862,
				-0.7067884206771851,
				0.48834937810897827
			],
			"scale":[
				1.0000001192092896,
				1.0000001192092896,
				0.9999999403953552
			],
			"translation":[
				1.3709068298339844e-06,
				0.21996991336345673,
				-2.9802322387695312e-08
			]
		},
		{
			"children":[
				46
			],
			"name":"LittleFinger2_R_45",
			"rotation":[
				5.921023330301978e-05,
				-7.775798439979553e-05,
				4.635937511920929e-05,
				1
			],
			"scale":[
				1,
				1,
				0.9999999403953552
			],
			"translation":[
				-6.854534149169922e-07,
				0.4000204801559448,
				5.066394805908203e-07
			]
		},
		{
			"children":[
				47
			],
			"name":"LittleFinger1_R_46",
			"rotation":[
				-0.016651231795549393,
				-0.5115302205085754,
				0.7022820711135864,
				0.494832843542099
			],
			"translation":[
				-0.676450788974762,
				0.004603168927133083,
				-0.3364732563495636
			]
		},
		{
			"name":"RingFinger3_R_47",
			"rotation":[
				0.04812997579574585,
				0.5145915746688843,
				-0.7054628729820251,
				0.48497551679611206
			],
			"scale":[
				0.9999999403953552,
				1.0000001192092896,
				1
			],
			"translation":[
				1.5348196029663086e-06,
				0.2700210511684418,
				0
			]
		},
		{
			"children":[
				49
			],
			"name":"RingFinger2_R_48",
			"rotation":[
				-8.096174133243039e-05,
				0.0001392588164890185,
				-0.00010505040700081736,
				1
			],
			"scale":[
				0.9999999403953552,
				0.9999999403953552,
				0.9999998807907104
			],
			"translation":[
				2.16066837310791e-06,
				0.4399498701095581,
				-1.1026859283447266e-06
			]
		},
		{
			"children":[
				50
			],
			"name":"RingFinger1_R_49",
			"rotation":[
				-0.0322909839451313,
				-0.5147624611854553,
				0.6912413239479065,
				0.5061249136924744
			],
			"scale":[
				1,
				1.0000001192092896,
				1
			],
			"translation":[
				-0.5699682831764221,
				-0.014470737427473068,
				-0.4995134472846985
			]
		},
		{
			"name":"MiddleFinger3_R_50",
			"rotation":[
				0.03863556683063507,
				0.5147765278816223,
				-0.7060489058494568,
				0.4847757816314697
			],
			"scale":[
				0.9999999403953552,
				0.9999997615814209,
				0.9999999403953552
			],
			"translation":[
				-7.539056241512299e-07,
				0.29000070691108704,
				-1.9883736968040466e-07
			]
		},
		{
			"children":[
				52
			],
			"name":"MiddleFinger2_R_51",
			"rotation":[
				1.236982825503219e-05,
				-2.5358054699609056e-05,
				2.0163137378403917e-05,
				1
			],
			"scale":[
				0.9999998807907104,
				0.9999998211860657,
				0.9999998807907104
			],
			"translation":[
				-9.229406714439392e-07,
				0.46001148223876953,
				-6.826594471931458e-07
			]
		},
		{
			"children":[
				53
			],
			"name":"MiddleFinger1_R_52",
			"rotation":[
				-0.02779550291597843,
				-0.5149838328361511,
				0.6960313320159912,
				0.4995594322681427
			],
			"scale":[
				1.0000001192092896,
				1.0000003576278687,
				1.0000001192092896
			],
			"translation":[
				-0.4096376895904541,
				-0.014728976413607597,
				-0.6509213447570801
			]
		},
		{
			"name":"IndexFinger3_R_53",
			"rotation":[
				0.03574255853891373,
				0.5279006958007812,
				-0.7061989307403564,
				0.4704534113407135
			],
			"scale":[
				1.0000001192092896,
				1.000000238418579,
				0.9999999403953552
			],
			"translation":[
				1.2516975402832031e-06,
				0.24998915195465088,
				-1.1622905731201172e-06
			]
		},
		{
			"children":[
				55
			],
			"name":"IndexFinger2_R_54",
			"rotation":[
				4.360266029834747e-05,
				-7.674470543861389e-05,
				5.299970507621765e-05,
				1
			],
			"translation":[
				8.642673492431641e-07,
				0.44000643491744995,
				-1.1473894119262695e-06
			]
		},
		{
			"children":[
				56
			],
			"name":"IndexFinger1_R_55",
			"rotation":[
				-0.035821955651044846,
				-0.5278944969177246,
				0.7061779499053955,
				0.4704858660697937
			],
			"scale":[
				0.9999998807907104,
				0.9999998211860657,
				0.9999998211860657
			],
			"translation":[
				-0.22284124791622162,
				0.01213392335921526,
				-0.7774503231048584
			]
		},
		{
			"children":[
				45,
				48,
				51,
				54,
				57
			],
			"name":"Right wrist_56",
			"rotation":[
				0.01717582903802395,
				0.5151779055595398,
				-0.7068855166435242,
				0.4843650758266449
			],
			"scale":[
				1,
				1.0000001192092896,
				1.0000001192092896
			],
			"translation":[
				-6.556510925292969e-07,
				2.8736283779144287,
				3.8743019104003906e-07
			]
		},
		{
			"children":[
				42,
				58
			],
			"name":"Right elbow_57",
			"rotation":[
				-0.03764733299612999,
				-0.0002009212039411068,
				0.0380680151283741,
				0.9985657334327698
			],
			"scale":[
				0.9999999403953552,
				1,
				0.9999999403953552
			],
			"translation":[
				-9.238719940185547e-07,
				3.211487054824829,
				2.9802322387695312e-08
			]
		},
		{
			"name":"R_ShoulderTwist_58",
			"rotation":[
				-0.30278533697128296,
				-0.22506940364837646,
				0.6389963030815125,
				0.6703346967697144
			],
			"scale":[
				0.9999999403953552,
				1,
				1
			],
			"translation":[
				3.069639205932617e-06,
				-1.7136335372924805e-06,
				-4.991888999938965e-06
			]
		},
		{
			"children":[
				59,
				60
			],
			"name":"Right arm_59",
			"rotation":[
				-0.3440086841583252,
				0.3440069258213043,
				-0.1672806292772293,
				0.8575164675712585
			],
			"scale":[
				1,
				1.0000001192092896,
				1
			],
			"translation":[
				1.0512085282243788e-06,
				1.4006731510162354,
				-1.535754222459218e-06
			]
		},
		{
			"children":[
				61
			],
			"name":"Right shoulder_60",
			"rotation":[
				-0.4706510007381439,
				0.47064825892448425,
				0.5277193784713745,
				0.5277217626571655
			],
			"scale":[
				0.9999998211860657,
				0.9999998211860657,
				0.9999998807907104
			],
			"translation":[
				-0.20009000599384308,
				2.3272781372070312,
				0.05962999910116196
			]
		},
		{
			"name":"L_ForearmTwist_61",
			"rotation":[
				-0.5326396226882935,
				-0.05205042287707329,
				-0.4650815725326538,
				0.705184280872345
			],
			"scale":[
				0.9999998807907104,
				1,
				1
			],
			"translation":[
				2.9653310775756836e-06,
				1.413008213043213,
				-1.0222196578979492e-05
			]
		},
		{
			"name":"Thumb2_L_62",
			"rotation":[
				0.6664782166481018,
				-0.17192460596561432,
				0.23627708852291107,
				0.6858730912208557
			],
			"scale":[
				1,
				1.0000001192092896,
				1
			],
			"translation":[
				6.034970283508301e-07,
				0.39000949263572693,
				-8.940696716308594e-08
			]
		},
		{
			"children":[
				64
			],
			"name":"Thumb1_L_63",
			"rotation":[
				2.2679567337036133e-05,
				1.2502074241638184e-05,
				-8.437782526016235e-07,
				1
			],
			"translation":[
				1.4081597328186035e-06,
				0.30996763706207275,
				-8.493661880493164e-07
			]
		},
		{
			"children":[
				65
			],
			"name":"Thumb0_L_64",
			"rotation":[
				-0.40746060013771057,
				0.5424292683601379,
				-0.35629794001579285,
				0.642493724822998
			],
			"scale":[
				1.0000001192092896,
				1,
				0.9999998807907104
			],
			"translation":[
				-0.08120137453079224,
				0.0594918355345726,
				-0.33361178636550903
			]
		},
		{
			"name":"IndexFinger3_L_65",
			"rotation":[
				0.0358048677444458,
				-0.5278931260108948,
				0.7062023878097534,
				0.4704520106315613
			],
			"scale":[
				1.0000001192092896,
				1,
				1.0000001192092896
			],
			"translation":[
				-8.493661880493164e-07,
				0.24999083578586578,
				1.9371509552001953e-07
			]
		},
		{
			"children":[
				67
			],
			"name":"IndexFinger2_L_66",
			"rotation":[
				-1.4901162614933128e-07,
				0,
				-2.1606686573250045e-07,
				1
			],
			"scale":[
				0.9999999403953552,
				0.9999998807907104,
				0.9999998807907104
			],
			"translation":[
				-8.344650268554688e-07,
				0.44002097845077515,
				8.195638656616211e-07
			]
		},
		{
			"children":[
				68
			],
			"name":"IndexFinger1_L_67",
			"rotation":[
				-0.0358002707362175,
				0.527892529964447,
				-0.7061983346939087,
				0.47045931220054626
			],
			"scale":[
				0.9999998211860657,
				0.9999998807907104,
				0.9999999403953552
			],
			"translation":[
				0.22285674512386322,
				0.012102863751351833,
				-0.7774471640586853
			]
		},
		{
			"name":"MiddleFinger3_L_68",
			"rotation":[
				0.03866240754723549,
				-0.5147740244865417,
				0.7060511708259583,
				0.4847729206085205
			],
			"scale":[
				1,
				0.9999998211860657,
				1.0000001192092896
			],
			"translation":[
				-9.406358003616333e-07,
				0.2900007367134094,
				-1.0486692190170288e-06
			]
		},
		{
			"children":[
				70
			],
			"name":"MiddleFinger2_L_69",
			"rotation":[
				1.0617077350616455e-06,
				1.4826655387878418e-06,
				-1.1194497346878052e-06,
				1
			],
			"translation":[
				4.791654646396637e-07,
				0.46001818776130676,
				1.480337232351303e-06
			]
		},
		{
			"children":[
				71
			],
			"name":"MiddleFinger1_L_70",
			"rotation":[
				-0.027792656794190407,
				0.5149834752082825,
				-0.6960352659225464,
				0.49955445528030396
			],
			"scale":[
				0.9999997019767761,
				0.9999997615814209,
				0.9999998211860657
			],
			"translation":[
				0.40964317321777344,
				-0.014764686115086079,
				-0.6508945226669312
			]
		},
		{
			"name":"RingFinger3_L_71",
			"rotation":[
				0.04794129729270935,
				-0.5145946145057678,
				0.7054775357246399,
				0.48496970534324646
			],
			"scale":[
				1.0000001192092896,
				1,
				1
			],
			"translation":[
				-2.175569534301758e-06,
				0.2700311243534088,
				5.513429641723633e-07
			]
		},
		{
			"children":[
				73
			],
			"name":"RingFinger2_L_72",
			"rotation":[
				1.7797576674638549e-06,
				1.709908474367694e-06,
				-2.0302834400354186e-06,
				1
			],
			"scale":[
				0.9999999403953552,
				0.9999998807907104,
				0.9999999403953552
			],
			"translation":[
				1.1920928955078125e-07,
				0.43994829058647156,
				1.7881393432617188e-07
			]
		},
		{
			"children":[
				74
			],
			"name":"RingFinger1_L_73",
			"rotation":[
				-0.03228401020169258,
				0.51475590467453,
				-0.6912397742271423,
				0.5061341524124146
			],
			"scale":[
				0.9999999403953552,
				1,
				0.9999998807907104
			],
			"translation":[
				0.5699951648712158,
				-0.014481940306723118,
				-0.4995187819004059
			]
		},
		{
			"name":"LittleFinger3_L_74",
			"rotation":[
				0.021447015926241875,
				-0.5113742351531982,
				0.7067815661430359,
				0.48836082220077515
			],
			"scale":[
				1,
				1.000000238418579,
				1
			],
			"translation":[
				-1.430511474609375e-06,
				0.21997304260730743,
				4.470348358154297e-07
			]
		},
		{
			"children":[
				76
			],
			"name":"LittleFinger2_L_75",
			"rotation":[
				1.7182901501655579e-07,
				6.55651035685878e-07,
				-5.681067705154419e-07,
				1
			],
			"scale":[
				1.0000001192092896,
				1,
				1.0000001192092896
			],
			"translation":[
				1.3709068298339844e-06,
				0.4000196158885956,
				-8.940696716308594e-08
			]
		},
		{
			"children":[
				77
			],
			"name":"LittleFinger1_L_76",
			"rotation":[
				-0.016642631962895393,
				0.5115205645561218,
				-0.7022789120674133,
				0.4948475658893585
			],
			"scale":[
				0.9999999403953552,
				1.0000001192092896,
				0.9999999403953552
			],
			"translation":[
				0.6764543652534485,
				0.004552341531962156,
				-0.3364609181880951
			]
		},
		{
			"children":[
				66,
				69,
				72,
				75,
				78
			],
			"name":"Left wrist_77",
			"rotation":[
				0.017117055132985115,
				-0.5151317715644836,
				0.7068814039230347,
				0.4844222068786621
			],
			"scale":[
				1.0000001192092896,
				1,
				0.9999998807907104
			],
			"translation":[
				-1.1026859283447266e-06,
				2.8736329078674316,
				-2.339482307434082e-06
			]
		},
		{
			"children":[
				63,
				79
			],
			"name":"Left elbow_78",
			"rotation":[
				-0.037523481994867325,
				0.0001953008904820308,
				-0.037935640662908554,
				0.9985754489898682
			],
			"scale":[
				1,
				0.9999998807907104,
				1
			],
			"translation":[
				-1.7583370208740234e-06,
				3.211503505706787,
				-1.4603137969970703e-06
			]
		},
		{
			"name":"L_ShoulderTwist_79",
			"rotation":[
				-0.3024885356426239,
				0.2254125475883484,
				-0.6391461491584778,
				0.6702104806900024
			],
			"scale":[
				0.9999999403953552,
				1,
				0.9999999403953552
			],
			"translation":[
				7.092952728271484e-06,
				-8.530914783477783e-07,
				7.003545761108398e-07
			]
		},
		{
			"children":[
				80,
				81
			],
			"name":"Left arm_80",
			"rotation":[
				-0.34404462575912476,
				-0.3440438210964203,
				0.16720543801784515,
				0.8575018644332886
			],
			"scale":[
				0.9999998807907104,
				1,
				1
			],
			"translation":[
				1.5871501091169193e-07,
				1.4006654024124146,
				-2.7950409275945276e-07
			]
		},
		{
			"children":[
				82
			],
			"name":"Left shoulder_81",
			"rotation":[
				-0.4706462323665619,
				-0.47064948081970215,
				-0.5277209877967834,
				0.5277231931686401
			],
			"scale":[
				0.9999999403953552,
				1,
				0.9999998807907104
			],
			"translation":[
				0.2000899761915207,
				2.3272781372070312,
				0.05963001400232315
			]
		},
		{
			"name":"CAS_L_Breast_82",
			"rotation":[
				4.9507321818964556e-05,
				-0.6656481027603149,
				-0.7462657690048218,
				4.4090298615628853e-05
			],
			"scale":[
				1,
				1.000000238418579,
				1
			],
			"translation":[
				0.7403498291969299,
				1.1657451391220093,
				1.0593762397766113
			]
		},
		{
			"name":"CAS_R_Breast_83",
			"rotation":[
				4.950731454300694e-05,
				-0.6656480431556702,
				-0.7462658286094666,
				4.409028770169243e-05
			],
			"scale":[
				1,
				0.9999998807907104,
				0.9999999403953552
			],
			"translation":[
				-0.740350067615509,
				1.1657136678695679,
				1.0593724250793457
			]
		},
		{
			"children":[
				41,
				62,
				83,
				84,
				85
			],
			"name":"Chest_84",
			"rotation":[
				-0.05700519308447838,
				4.411750609278897e-08,
				-3.9640748461522435e-09,
				0.9983738660812378
			],
			"translation":[
				-1.0842021724855044e-18,
				1.6207687854766846,
				1.1641532182693481e-10
			]
		},
		{
			"children":[
				86
			],
			"name":"Spine_85",
			"rotation":[
				-6.642939115408808e-05,
				-2.980864621804358e-08,
				-3.6620164366174546e-12,
				1
			],
			"translation":[
				2.0861433824848064e-07,
				0.7840242385864258,
				2.2828422515885904e-05
			]
		},
		{
			"name":"Left toe_86",
			"rotation":[
				-0.9187284111976624,
				2.0907732505293097e-06,
				-0.033717863261699677,
				0.3934479355812073
			],
			"scale":[
				0.9999999403953552,
				1,
				1.0000004768371582
			],
			"translation":[
				-4.1531166061758995e-08,
				1.5957099199295044,
				1.1827796697616577e-07
			]
		},
		{
			"children":[
				88
			],
			"name":"Left ankle_87",
			"rotation":[
				-0.4174647331237793,
				-3.271699824836105e-06,
				-0.015319282189011574,
				0.908564031124115
			],
			"scale":[
				1,
				0.9999999403953552,
				0.9999998807907104
			],
			"translation":[
				1.0407529771327972e-07,
				4.191962242126465,
				1.862645149230957e-08
			]
		},
		{
			"children":[
				89
			],
			"name":"Left knee_88",
			"rotation":[
				0.03955991193652153,
				1.9549813146113593e-07,
				0.0014518351526930928,
				0.9992161989212036
			],
			"scale":[
				0.9999999403953552,
				0.9999998211860657,
				0.9999999403953552
			],
			"translation":[
				-1.7276033759117126e-07,
				4.842258453369141,
				7.450580596923828e-08
			]
		},
		{
			"name":"L_Skirt_89",
			"rotation":[
				-0.7056109309196472,
				-0.001205519074574113,
				-0.024723663926124573,
				0.7081670761108398
			],
			"scale":[
				0.9999999403953552,
				0.9999998211860657,
				0.9999998211860657
			],
			"translation":[
				-3.4036929719150066e-06,
				-6.8814952101092786e-06,
				1.0229065082967281e-05
			]
		},
		{
			"name":"L_ThighTwist_90",
			"rotation":[
				-0.7066255211830139,
				0.00014810531865805387,
				-0.026080744341015816,
				0.70710688829422
			],
			"scale":[
				0.9999999403953552,
				0.9999998211860657,
				0.9999999403953552
			],
			"translation":[
				5.1844835979864e-08,
				1.889893610496074e-07,
				2.0954757928848267e-08
			]
		},
		{
			"children":[
				90,
				91,
				92
			],
			"name":"Left leg_91",
			"rotation":[
				0.9995750188827515,
				0.01857420802116394,
				0.01860472559928894,
				0.012594909407198429
			],
			"scale":[
				1.0000005960464478,
				0.9999999403953552,
				1.0000003576278687
			],
			"translation":[
				0.6603109836578369,
				-0.38616085052490234,
				-0.00013278779806569219
			]
		},
		{
			"name":"Right toe_92",
			"rotation":[
				-0.9187331795692444,
				-5.728942596761044e-06,
				0.03371429070830345,
				0.393436998128891
			],
			"scale":[
				0.9999999403953552,
				1,
				1.0000004768371582
			],
			"translation":[
				1.9147410057485104e-07,
				1.5956631898880005,
				-1.587904989719391e-07
			]
		},
		{
			"children":[
				94
			],
			"name":"Right ankle_93",
			"rotation":[
				-0.41745132207870483,
				5.706408501282567e-06,
				0.015315712429583073,
				0.9085702300071716
			],
			"scale":[
				0.9999999403953552,
				1,
				1
			],
			"translation":[
				1.601874828338623e-07,
				4.191962718963623,
				-5.21540641784668e-08
			]
		},
		{
			"children":[
				95
			],
			"name":"Right knee_94",
			"rotation":[
				0.03948144614696503,
				-2.735858970481786e-07,
				-0.0014487593434751034,
				0.9992192387580872
			],
			"translation":[
				2.60770320892334e-08,
				4.842259407043457,
				1.4901161193847656e-08
			]
		},
		{
			"name":"R_Skirt_95",
			"rotation":[
				-0.705609142780304,
				0.001149872550740838,
				0.024776089936494827,
				0.7081670761108398
			],
			"scale":[
				1,
				0.9999999403953552,
				1.0000001192092896
			],
			"translation":[
				3.2368589018005878e-06,
				5.84694862482138e-06,
				1.2150267139077187e-06
			]
		},
		{
			"name":"R_ThighTwist_96",
			"rotation":[
				-0.7066205739974976,
				-0.00019591210002545267,
				0.026125546544790268,
				0.7071101665496826
			],
			"scale":[
				1.0000001192092896,
				0.9999999403953552,
				1
			],
			"translation":[
				9.104405762627721e-08,
				1.2192540452815592e-06,
				-5.797483026981354e-08
			]
		},
		{
			"children":[
				96,
				97,
				98
			],
			"name":"Right leg_97",
			"rotation":[
				0.9995760321617126,
				-0.01857410930097103,
				-0.018570398911833763,
				0.012564207427203655
			],
			"scale":[
				1.0000005960464478,
				1,
				1.000000238418579
			],
			"translation":[
				-0.660311222076416,
				-0.3861722946166992,
				-0.0001441503845853731
			]
		},
		{
			"children":[
				87,
				93,
				99
			],
			"name":"Hips_98",
			"rotation":[
				-8.881785255792436e-16,
				2.536909349259986e-08,
				2.6469779601696886e-23,
				1
			],
			"scale":[
				1,
				0.9999998807907104,
				1
			],
			"translation":[
				-2.085760826275873e-07,
				10.513304710388184,
				-0.0011734961299225688
			]
		},
		{
			"children":[
				100
			],
			"name":"GLTF_created_0_rootJoint",
			"rotation":[
				-8.557136332854043e-09,
				1.7114272665708086e-08,
				-2.928983286277023e-16,
				1
			]
		},
		{
			"children":[
				0,
				1,
				101
			],
			"name":"GLTF_created_0"
		},
		{
			"children":[
				102
			],
			"name":"Armature_100"
		},
		{
			"children":[
				103
			],
			"name":"GLTF_SceneRootNode",
			"rotation":[
				0.70710688829422,
				0,
				0,
				0.7071066498756409
			]
		},
		{
			"children":[
				104
			],
			"name":"root"
		},
		{
			"children":[
				105
			],
			"name":"Sketchfab_model",
			"rotation":[
				-0.70710688829422,
				0,
				0,
				0.7071066498756409
			]
		}
	],
	"materials":[
		{
			"doubleSided":true,
			"extensions":{
				"KHR_materials_unlit":{}
			},
			"name":"Body",
			"pbrMetallicRoughness":{
				"baseColorTexture":{
					"index":0
				},
				"metallicFactor":0,
				"roughnessFactor":0.9
			}
		}
	],
	"meshes":[
		{
			"name":"Object_0",
			"primitives":[
				{
					"attributes":{
						"POSITION":0,
						"NORMAL":1,
						"TEXCOORD_0":2,
						"TEXCOORD_1":3
					},
					"indices":4,
					"material":0
				}
			]
		}
	],
	"textures":[
		{
			"sampler":0,
			"source":0
		}
	],
	"images":[
		{
			"mimeType":"image/png",
			"name":"Body_baseColor",
			"uri":"Body_baseColor.png"
		}
	],
	"accessors":[
		{
			"bufferView":0,
			"componentType":5126,
			"count":23174,
			"max":[
				2.8379693031311035,
				20.43338394165039,
				1.4753116369247437
			],
			"min":[
				-7.508404731750488,
				-0.5011930465698242,
				-2.3473079204559326
			],
			"type":"VEC3"
		},
		{
			"bufferView":1,
			"componentType":5126,
			"count":23174,
			"type":"VEC3"
		},
		{
			"bufferView":2,
			"componentType":5126,
			"count":23174,
			"type":"VEC2"
		},
		{
			"bufferView":3,
			"componentType":5126,
			"count":23174,
			"type":"VEC2"
		},
		{
			"bufferView":4,
			"componentType":5123,
			"count":102963,
			"type":"SCALAR"
		}
	],
	"bufferViews":[
		{
			"buffer":0,
			"byteLength":278088,
			"byteOffset":0,
			"target":34962
		},
		{
			"buffer":0,
			"byteLength":278088,
			"byteOffset":278088,
			"target":34962
		},
		{
			"buffer":0,
			"byteLength":185392,
			"byteOffset":556176,
			"target":34962
		},
		{
			"buffer":0,
			"byteLength":185392,
			"byteOffset":741568,
			"target":34962
		},
		{
			"buffer":0,
			"byteLength":205926,
			"byteOffset":926960,
			"target":34963
		}
	],
	"samplers":[
		{
			"magFilter":9729,
			"minFilter":9987
		}
	],
	"buffers":[
		{
			"byteLength":1132888,
			"uri":"Wednesday.bin"
		}
	]
}
